<svg width="17" height="13" viewBox="0 0 17 13" fill="none" xmlns="http://www.w3.org/2000/svg">
<path d="M2.45742 12.9C2.01742 12.9 1.64076 12.7433 1.32742 12.43C1.01409 12.1166 0.857422 11.74 0.857422 11.3V1.69998C0.857422 1.25998 1.01409 0.883309 1.32742 0.569976C1.64076 0.256642 2.01742 0.0999756 2.45742 0.0999756H7.25742L8.85742 1.69998H15.2574C15.6974 1.69998 16.0741 1.85664 16.3874 2.16998C16.7008 2.48331 16.8574 2.85998 16.8574 3.29998V11.3C16.8574 11.74 16.7008 12.1166 16.3874 12.43C16.0741 12.7433 15.6974 12.9 15.2574 12.9H2.45742ZM2.45742 11.3H15.2574V3.29998H8.19742L6.59742 1.69998H2.45742V11.3Z" fill="#6F6F6F"/>
</svg>
