<svg width="17" height="17" viewBox="0 0 17 17" fill="none" xmlns="http://www.w3.org/2000/svg">
<path d="M6.51742 10.3L8.85742 8.88L11.1974 10.3L10.5774 7.64L12.6574 5.84L9.91742 5.62L8.85742 3.1L7.79742 5.62L5.05742 5.84L7.13742 7.64L6.51742 10.3ZM0.857422 16.5V2.1C0.857422 1.66 1.01409 1.28333 1.32742 0.97C1.64076 0.656667 2.01742 0.5 2.45742 0.5H15.2574C15.6974 0.5 16.0741 0.656667 16.3874 0.97C16.7008 1.28333 16.8574 1.66 16.8574 2.1V11.7C16.8574 12.14 16.7008 12.5167 16.3874 12.83C16.0741 13.1433 15.6974 13.3 15.2574 13.3H4.05742L0.857422 16.5ZM3.37742 11.7H15.2574V2.1H2.45742V12.6L3.37742 11.7Z" fill="#6F6F6F"/>
</svg>
