<svg width="17" height="17" viewBox="0 0 17 17" fill="none" xmlns="http://www.w3.org/2000/svg">
<path d="M8.18658 16.51C7.98633 16.51 7.78608 16.47 7.58583 16.3899C7.38558 16.3098 7.20536 16.1896 7.04516 16.0294L1.318 10.3023C1.1578 10.1421 1.04098 9.96517 0.96756 9.77159C0.894134 9.57802 0.857422 9.3811 0.857422 9.18085C0.857422 8.9806 0.894134 8.78035 0.96756 8.5801C1.04098 8.37985 1.1578 8.19963 1.318 8.03943L8.36681 0.970591C8.51366 0.823741 8.68721 0.706928 8.88746 0.620153C9.08771 0.533378 9.29463 0.48999 9.50824 0.48999H15.2554C15.696 0.48999 16.0731 0.646853 16.3868 0.960579C16.7006 1.2743 16.8574 1.65144 16.8574 2.09199V7.83918C16.8574 8.05278 16.8174 8.25636 16.7373 8.44994C16.6572 8.64352 16.5437 8.81373 16.3968 8.96058L9.32801 16.0294C9.16781 16.1896 8.98759 16.3098 8.78733 16.3899C8.58708 16.47 8.38683 16.51 8.18658 16.51ZM8.18658 14.908L15.2554 7.81915V2.09199H9.52826L2.45942 9.18085L8.18658 14.908ZM13.2529 5.296C13.5867 5.296 13.8704 5.17918 14.104 4.94556C14.3376 4.71193 14.4544 4.42825 14.4544 4.0945C14.4544 3.76075 14.3376 3.47706 14.104 3.24343C13.8704 3.00981 13.5867 2.89299 13.2529 2.89299C12.9192 2.89299 12.6355 3.00981 12.4019 3.24343C12.1682 3.47706 12.0514 3.76075 12.0514 4.0945C12.0514 4.42825 12.1682 4.71193 12.4019 4.94556C12.6355 5.17918 12.9192 5.296 13.2529 5.296Z" fill="#6F6F6F"/>
</svg>
