<svg width="560" height="93" viewBox="0 0 560 93" fill="none" xmlns="http://www.w3.org/2000/svg">
<path d="M135.083 66.8423L123.742 18.239H133.831L141.931 58.7417H142.668L151.726 18.239H163.729L172.713 58.7417H173.523L181.698 18.239H191.345L179.783 66.8423H166.675L157.911 26.3396H157.249L148.485 66.8423H135.083Z" fill="white"/>
<path d="M202.345 67.7996C200.234 67.7996 198.344 67.4068 196.675 66.6213C195.006 65.7867 193.68 64.5594 192.698 62.9393C191.765 61.3192 191.299 59.3063 191.299 56.9007C191.299 54.8878 191.667 53.1695 192.404 51.7458C193.189 50.3221 194.343 49.1684 195.865 48.2847C197.387 47.3519 199.277 46.5909 201.535 46.0018C203.794 45.3636 206.445 44.8235 209.488 44.3817C211.158 44.1362 212.508 43.8907 213.539 43.6453C214.619 43.3998 215.404 43.0316 215.895 42.5406C216.386 42.0006 216.632 41.2151 216.632 40.1841C216.632 38.6622 216.092 37.3612 215.012 36.2811C213.981 35.152 212.287 34.5874 209.93 34.5874C208.507 34.5874 207.132 34.8328 205.806 35.3238C204.53 35.8147 203.425 36.6002 202.493 37.6803C201.56 38.7113 200.922 40.0859 200.578 41.8042L192.256 39.2268C192.796 37.263 193.582 35.5693 194.613 34.1455C195.644 32.6727 196.92 31.4208 198.442 30.3898C199.964 29.3588 201.707 28.5979 203.671 28.1069C205.635 27.616 207.795 27.3705 210.151 27.3705C213.735 27.3705 216.681 27.9597 218.988 29.1379C221.296 30.2671 223.014 32.059 224.143 34.5137C225.272 36.9194 225.837 40.0368 225.837 43.8662V51.083C225.837 52.7522 225.861 54.4951 225.91 56.3116C226.009 58.0789 226.107 59.8709 226.205 61.6874C226.352 63.4548 226.524 65.1731 226.721 66.8423H218.399C218.203 65.4676 218.031 63.9948 217.884 62.4238C217.736 60.8528 217.614 59.2572 217.515 57.6371H216.337C215.65 59.5027 214.668 61.221 213.391 62.792C212.115 64.3139 210.544 65.5413 208.678 66.474C206.862 67.3577 204.751 67.7996 202.345 67.7996ZM206.027 60.951C207.009 60.951 207.991 60.7791 208.973 60.4355C210.004 60.0918 211.01 59.5763 211.992 58.889C212.974 58.2017 213.882 57.3671 214.717 56.3852C215.552 55.3542 216.263 54.1514 216.853 52.7768L216.705 46.2227L218.473 46.5173C217.638 47.2046 216.607 47.7446 215.38 48.1374C214.152 48.5301 212.851 48.8247 211.477 49.0211C210.151 49.2174 208.801 49.4629 207.426 49.7575C206.101 50.0029 204.898 50.3466 203.818 50.7885C202.738 51.1812 201.879 51.7703 201.241 52.5559C200.602 53.2923 200.283 54.3232 200.283 55.6488C200.283 57.318 200.823 58.619 201.903 59.5518C202.983 60.4846 204.358 60.951 206.027 60.951Z" fill="white"/>
<path d="M232.919 66.8423V14.5569H242.051V66.8423H232.919Z" fill="white"/>
<path d="M249.534 66.8423V14.5569H258.666V66.8423H249.534Z" fill="white"/>
<path d="M301.886 67.7996C298.352 67.7996 295.21 67.235 292.46 66.1058C289.711 64.9767 287.355 63.3566 285.391 61.2455C283.476 59.0854 282.003 56.4588 280.972 53.3659C279.941 50.273 279.426 46.7382 279.426 42.7616C279.426 37.0175 280.408 32.2799 282.371 28.5488C284.335 24.7685 287.035 21.9456 290.472 20.08C293.909 18.2145 297.812 17.2817 302.181 17.2817C305.568 17.2817 308.637 17.8463 311.386 18.9754C314.135 20.0555 316.467 21.6756 318.382 23.8357C320.346 25.9468 321.868 28.5979 322.948 31.789C324.028 34.931 324.568 38.5395 324.568 42.6143C324.568 46.6891 324.028 50.2975 322.948 53.4395C321.917 56.5325 320.419 59.159 318.456 61.3192C316.492 63.4302 314.111 65.0503 311.312 66.1795C308.563 67.2596 305.421 67.7996 301.886 67.7996ZM302.107 60.2882C304.906 60.2882 307.238 59.6254 309.103 58.2999C311.018 56.9252 312.466 54.9615 313.448 52.4086C314.479 49.8557 314.995 46.7382 314.995 43.0561C314.995 39.2759 314.479 36.0357 313.448 33.3355C312.417 30.6353 310.92 28.5979 308.956 27.2232C307.041 25.7995 304.685 25.0877 301.886 25.0877C299.235 25.0877 296.928 25.775 294.964 27.1496C293.049 28.4752 291.577 30.4635 290.546 33.1146C289.515 35.7165 288.999 38.9077 288.999 42.6879C288.999 45.5354 289.294 48.0637 289.883 50.273C290.472 52.4331 291.307 54.2496 292.387 55.7224C293.516 57.1952 294.89 58.3244 296.511 59.1099C298.18 59.8954 300.045 60.2882 302.107 60.2882Z" fill="white"/>
<path d="M333.681 66.8423V41.3624H327.274V34.3665L337.363 34.8819V33.5564C335.841 33.1146 334.565 32.4763 333.534 31.6417C332.503 30.758 331.742 29.7271 331.251 28.5488C330.809 27.3705 330.588 26.0941 330.588 24.7194C330.588 22.6084 331.104 20.7919 332.135 19.27C333.166 17.7481 334.614 16.5698 336.479 15.7352C338.345 14.8515 340.554 14.4097 343.107 14.4097C345.218 14.4097 347.133 14.6797 348.851 15.2197C350.618 15.7598 352.042 16.4225 353.122 17.208L352.386 25.7504C351.306 24.8667 350.054 24.1794 348.63 23.6885C347.206 23.1484 345.832 22.8784 344.506 22.8784C342.984 22.8784 341.732 23.3203 340.751 24.204C339.769 25.0386 339.278 26.4132 339.278 28.3279C339.278 29.5552 339.499 30.5617 339.941 31.3472C340.382 32.0836 340.947 32.6727 341.634 33.1146C342.371 33.5073 343.083 33.8019 343.77 33.9982H352.754V41.3624H342.739V66.8423H333.681Z" fill="white"/>
<path d="M389.611 67.7993C386.42 67.7993 383.573 67.4802 381.069 66.842C378.565 66.2528 376.43 65.32 374.662 64.0436C372.944 62.718 371.618 61.1225 370.686 59.2569C369.753 57.3422 369.262 55.1084 369.213 52.5555L377.461 50.1254C377.411 52.4819 377.902 54.4457 378.933 56.0167C379.964 57.5386 381.437 58.6678 383.352 59.4042C385.316 60.1406 387.549 60.5088 390.053 60.5088C392.459 60.5088 394.472 60.2142 396.092 59.6251C397.761 59.036 399.013 58.2505 399.848 57.2686C400.682 56.2376 401.099 55.0839 401.099 53.8074C401.099 52.3837 400.584 51.2545 399.553 50.4199C398.522 49.5362 397.123 48.8244 395.355 48.2843C393.637 47.6952 391.673 47.1552 389.464 46.6642C387.058 46.1242 384.702 45.5351 382.395 44.8968C380.136 44.2586 378.074 43.3995 376.209 42.3194C374.343 41.2393 372.846 39.8647 371.717 38.1955C370.636 36.4772 370.096 34.3171 370.096 31.7151C370.096 28.7694 370.833 26.2411 372.306 24.13C373.778 21.9699 375.914 20.3007 378.712 19.1224C381.56 17.895 384.947 17.2814 388.875 17.2814C392.753 17.2814 396.141 17.8705 399.037 19.0488C401.934 20.1779 404.192 21.8471 405.812 24.0564C407.433 26.2656 408.292 28.8676 408.39 31.8623L399.921 34.2189C399.921 32.5988 399.651 31.1996 399.111 30.0213C398.62 28.794 397.884 27.7875 396.902 27.002C395.92 26.1674 394.742 25.5537 393.367 25.161C392.042 24.7682 390.52 24.5719 388.801 24.5719C386.788 24.5719 385.021 24.8419 383.499 25.3819C382.026 25.9219 380.897 26.6829 380.112 27.6648C379.326 28.5976 378.933 29.7022 378.933 30.9786C378.933 32.5497 379.523 33.8016 380.701 34.7344C381.879 35.6671 383.426 36.4281 385.34 37.0172C387.304 37.5573 389.44 38.0973 391.747 38.6373C393.858 39.0792 395.969 39.6192 398.08 40.2574C400.24 40.8957 402.229 41.7303 404.045 42.7612C405.862 43.7922 407.31 45.1914 408.39 46.9588C409.519 48.6771 410.084 50.8618 410.084 53.5129C410.084 56.3603 409.323 58.8641 407.801 61.0243C406.279 63.1844 403.996 64.8536 400.952 66.0319C397.908 67.2102 394.128 67.7993 389.611 67.7993Z" fill="url(#paint0_linear_109_299)"/>
<path d="M415.714 66.842V14.5566H425.067V26.5602C425.067 27.5911 425.018 28.6467 424.919 29.7267C424.87 30.8068 424.772 31.9114 424.625 33.0406C424.478 34.1698 424.306 35.2989 424.109 36.4281C423.962 37.5573 423.79 38.6864 423.594 39.8156H425.14C425.828 37.1645 426.711 34.9307 427.791 33.1142C428.872 31.2487 430.246 29.8249 431.915 28.843C433.634 27.8612 435.72 27.3702 438.175 27.3702C442.642 27.3702 445.981 28.9412 448.19 32.0833C450.399 35.1762 451.504 39.8892 451.504 46.2224V66.842H442.152V47.5479C442.152 43.3258 441.513 40.2084 440.237 38.1955C439.01 36.1826 437.144 35.1762 434.64 35.1762C432.578 35.1762 430.86 35.8144 429.485 37.0909C428.111 38.3182 427.055 39.9629 426.319 42.0248C425.582 44.0868 425.14 46.4188 424.993 49.0208V66.842H415.714Z" fill="url(#paint1_linear_109_299)"/>
<path d="M467.274 67.7993C465.163 67.7993 463.272 67.4065 461.603 66.621C459.934 65.7864 458.608 64.5591 457.627 62.939C456.694 61.3189 456.227 59.306 456.227 56.9004C456.227 54.8875 456.596 53.1692 457.332 51.7455C458.118 50.3218 459.271 49.168 460.793 48.2843C462.315 47.3516 464.205 46.5906 466.464 46.0015C468.722 45.3632 471.373 44.8232 474.417 44.3814C476.086 44.1359 477.436 43.8904 478.467 43.6449C479.547 43.3995 480.333 43.0313 480.824 42.5403C481.315 42.0003 481.56 41.2148 481.56 40.1838C481.56 38.6619 481.02 37.3609 479.94 36.2808C478.909 35.1517 477.215 34.5871 474.859 34.5871C473.435 34.5871 472.06 34.8325 470.735 35.3235C469.458 35.8144 468.354 36.5999 467.421 37.68C466.488 38.711 465.85 40.0856 465.506 41.8039L457.185 39.2265C457.725 37.2627 458.51 35.569 459.541 34.1452C460.572 32.6724 461.849 31.4205 463.371 30.3895C464.893 29.3585 466.635 28.5976 468.599 28.1066C470.563 27.6157 472.723 27.3702 475.08 27.3702C478.663 27.3702 481.609 27.9594 483.917 29.1376C486.224 30.2668 487.942 32.0587 489.071 34.5134C490.201 36.919 490.765 40.0365 490.765 43.8659V51.0827C490.765 52.7519 490.79 54.4948 490.839 56.3112C490.937 58.0786 491.035 59.8706 491.133 61.6871C491.281 63.4545 491.452 65.1727 491.649 66.842H483.327C483.131 65.4673 482.959 63.9945 482.812 62.4235C482.665 60.8525 482.542 59.2569 482.444 57.6368H481.265C480.578 59.5024 479.596 61.2207 478.32 62.7917C477.043 64.3136 475.472 65.541 473.607 66.4737C471.79 67.3574 469.679 67.7993 467.274 67.7993ZM470.956 60.9506C471.938 60.9506 472.919 60.7788 473.901 60.4352C474.932 60.0915 475.939 59.576 476.921 58.8887C477.902 58.2014 478.811 57.3668 479.645 56.3849C480.48 55.3539 481.192 54.1511 481.781 52.7765L481.634 46.2224L483.401 46.517C482.566 47.2043 481.535 47.7443 480.308 48.1371C479.081 48.5298 477.78 48.8244 476.405 49.0208C475.08 49.2171 473.729 49.4626 472.355 49.7572C471.029 50.0026 469.826 50.3463 468.746 50.7882C467.666 51.1809 466.807 51.77 466.169 52.5555C465.531 53.292 465.212 54.3229 465.212 55.6485C465.212 57.3177 465.752 58.6187 466.832 59.5515C467.912 60.4843 469.286 60.9506 470.956 60.9506Z" fill="url(#paint2_linear_109_299)"/>
<path d="M497.847 66.842V28.3276H505.653L505.506 41.583H506.832C507.273 38.441 507.961 35.839 508.894 33.777C509.826 31.666 511.127 30.095 512.797 29.064C514.466 27.9839 516.528 27.4439 518.982 27.4439C519.473 27.4439 519.989 27.4684 520.529 27.5175C521.118 27.5666 521.756 27.6893 522.444 27.8857L522.075 37.68C521.29 37.3854 520.48 37.1891 519.645 37.0909C518.86 36.9436 518.123 36.8699 517.436 36.8699C515.521 36.8699 513.852 37.3609 512.428 38.3428C511.054 39.3247 509.925 40.7238 509.041 42.5403C508.206 44.3077 507.568 46.4188 507.126 48.8735V66.842H497.847Z" fill="url(#paint3_linear_109_299)"/>
<path d="M542.989 67.7993C539.896 67.7993 537.122 67.3574 534.667 66.4737C532.262 65.59 530.224 64.3136 528.555 62.6444C526.886 60.9261 525.61 58.8641 524.726 56.4585C523.842 54.0529 523.4 51.3282 523.4 48.2843C523.4 45.2405 523.818 42.4421 524.652 39.8892C525.536 37.3363 526.788 35.1271 528.408 33.2615C530.028 31.3959 531.992 29.9477 534.299 28.9167C536.656 27.8857 539.331 27.3702 542.326 27.3702C545.124 27.3702 547.628 27.8366 549.838 28.7694C552.047 29.7022 553.912 31.1014 555.434 32.967C556.956 34.7834 558.085 37.0663 558.822 39.8156C559.558 42.5158 559.804 45.6578 559.558 49.2417L529.439 49.4626V44.0868L554.182 43.8659L550.942 46.8852C551.237 44.0868 551.016 41.8039 550.279 40.0365C549.543 38.22 548.487 36.8945 547.113 36.0599C545.738 35.1762 544.167 34.7344 542.4 34.7344C540.387 34.7344 538.62 35.2744 537.098 36.3545C535.576 37.3854 534.397 38.9074 533.563 40.9202C532.777 42.884 532.385 45.2896 532.385 48.1371C532.385 52.4083 533.317 55.5994 535.183 57.7104C537.098 59.8215 539.7 60.877 542.989 60.877C544.462 60.877 545.689 60.7052 546.671 60.3615C547.702 59.9688 548.561 59.4778 549.248 58.8887C549.936 58.2505 550.476 57.5386 550.869 56.7531C551.31 55.9676 551.654 55.133 551.899 54.2493L560 56.0903C559.607 57.9068 558.969 59.5269 558.085 60.9506C557.202 62.3744 556.048 63.6017 554.624 64.6327C553.25 65.6637 551.605 66.4492 549.69 66.9892C547.776 67.5293 545.542 67.7993 542.989 67.7993Z" fill="url(#paint4_linear_109_299)"/>
<path d="M103.098 4.13117C103.098 1.70984 100.65 0.0519954 98.3885 0.918384C66.4691 13.1494 46.803 17.4935 14.5829 19.0728C12.7436 19.163 11.2917 20.6757 11.2917 22.5172V65.7784C11.2917 67.6235 12.7491 69.1377 14.5922 69.2237C46.441 70.7082 66.0379 75.1171 98.1529 90.0383C100.446 91.1038 103.098 89.4457 103.098 86.9171V4.13117Z" fill="url(#paint5_linear_109_299)" fill-opacity="0.2"/>
<path d="M0 4.92018C0 1.56964 3.28743 -0.794033 6.47148 0.248978C38.743 10.8203 58.4664 15.7162 87.7896 18.4575C90.3316 18.6952 92.2971 20.8195 92.2971 23.3726V63.8025C92.2971 66.2185 90.5312 68.2738 88.1477 68.6695C56.7497 73.8813 37.2467 80.2129 6.66936 91.7945C3.45069 93.0136 0 90.6412 0 87.1994V4.92018Z" fill="#D9D9D9"/>
<path d="M0 4.92018C0 1.56964 3.28743 -0.794033 6.47148 0.248978C38.743 10.8203 58.4664 15.7162 87.7896 18.4575C90.3316 18.6952 92.2971 20.8195 92.2971 23.3726V63.8025C92.2971 66.2185 90.5312 68.2738 88.1477 68.6695C56.7497 73.8813 37.2467 80.2129 6.66936 91.7945C3.45069 93.0136 0 90.6412 0 87.1994V4.92018Z" fill="url(#paint6_linear_109_299)"/>
<defs>
<linearGradient id="paint0_linear_109_299" x1="365.752" y1="42.2949" x2="563.11" y2="42.2949" gradientUnits="userSpaceOnUse">
<stop stop-color="#895EF6"/>
<stop offset="0.54" stop-color="#F03063"/>
<stop offset="1" stop-color="#FF7640"/>
</linearGradient>
<linearGradient id="paint1_linear_109_299" x1="365.752" y1="42.2949" x2="563.11" y2="42.2949" gradientUnits="userSpaceOnUse">
<stop stop-color="#895EF6"/>
<stop offset="0.54" stop-color="#F03063"/>
<stop offset="1" stop-color="#FF7640"/>
</linearGradient>
<linearGradient id="paint2_linear_109_299" x1="365.752" y1="42.2949" x2="563.11" y2="42.2949" gradientUnits="userSpaceOnUse">
<stop stop-color="#895EF6"/>
<stop offset="0.54" stop-color="#F03063"/>
<stop offset="1" stop-color="#FF7640"/>
</linearGradient>
<linearGradient id="paint3_linear_109_299" x1="365.752" y1="42.2949" x2="563.11" y2="42.2949" gradientUnits="userSpaceOnUse">
<stop stop-color="#895EF6"/>
<stop offset="0.54" stop-color="#F03063"/>
<stop offset="1" stop-color="#FF7640"/>
</linearGradient>
<linearGradient id="paint4_linear_109_299" x1="365.752" y1="42.2949" x2="563.11" y2="42.2949" gradientUnits="userSpaceOnUse">
<stop stop-color="#895EF6"/>
<stop offset="0.54" stop-color="#F03063"/>
<stop offset="1" stop-color="#FF7640"/>
</linearGradient>
<linearGradient id="paint5_linear_109_299" x1="88.8605" y1="45.7316" x2="33.9045" y2="46.2331" gradientUnits="userSpaceOnUse">
<stop stop-color="#895EF6"/>
<stop offset="0.495" stop-color="#F03063"/>
<stop offset="0.99" stop-color="#FF7640"/>
</linearGradient>
<linearGradient id="paint6_linear_109_299" x1="101.307" y1="46.2226" x2="1.42314" y2="34.3" gradientUnits="userSpaceOnUse">
<stop stop-color="#895EF6"/>
<stop offset="0.54" stop-color="#F03063"/>
<stop offset="1" stop-color="#FF7640"/>
</linearGradient>
</defs>
</svg>
