<svg width="14" height="13" viewBox="0 0 14 13" fill="none" xmlns="http://www.w3.org/2000/svg">
<path d="M2.05742 13C1.72742 13 1.44492 12.8825 1.20992 12.6475C0.974922 12.4125 0.857422 12.13 0.857422 11.8V2.2C0.857422 1.87 0.974922 1.5875 1.20992 1.3525C1.44492 1.1175 1.72742 1 2.05742 1H6.94742L5.74742 2.2H2.05742V11.8H8.65742V10.6H9.85742V11.8C9.85742 12.13 9.73992 12.4125 9.50492 12.6475C9.26992 12.8825 8.98742 13 8.65742 13H2.05742ZM3.25742 10.6V9.4H7.45742V10.6H3.25742ZM3.25742 8.8V7.6H6.25742V8.8H3.25742Z" fill="#1D1D39"/>
<path d="M9.05742 8.27419L6.65742 5.95161H4.85742V3.04839H6.65742L9.05742 0.725806V8.27419ZM10.2574 6.50323V2.49677C10.6174 2.7 10.9074 2.97581 11.1274 3.32419C11.3474 3.67258 11.4574 4.06452 11.4574 4.5C11.4574 4.93548 11.3474 5.32742 11.1274 5.67581C10.9074 6.02419 10.6174 6.3 10.2574 6.50323ZM10.2574 9V7.78065C10.9574 7.53871 11.5324 7.12016 11.9824 6.525C12.4324 5.92984 12.6574 5.25484 12.6574 4.5C12.6574 3.74516 12.4324 3.07016 11.9824 2.475C11.5324 1.87984 10.9574 1.46129 10.2574 1.21935V0C11.2974 0.26129 12.1574 0.805645 12.8374 1.63306C13.5174 2.46048 13.8574 3.41613 13.8574 4.5C13.8574 5.58387 13.5174 6.53952 12.8374 7.36694C12.1574 8.19436 11.2974 8.73871 10.2574 9Z" fill="#895EF6"/>
</svg>
