<svg width="46" height="37" viewBox="0 0 46 37" fill="none" xmlns="http://www.w3.org/2000/svg">
<path d="M40.1456 13.5438C39.9236 13.8718 39.7922 14.2526 39.7645 14.6476C39.7369 15.0427 39.814 15.4381 39.9881 15.7938C40.5465 17.0972 40.9396 18.4654 41.1581 19.8665C41.7373 23.4894 41.1956 27.2028 39.6056 30.5093C39.4125 30.8719 39.1238 31.1748 38.7707 31.385C38.4177 31.5952 38.0139 31.7048 37.603 31.7018H9.13972C8.72655 31.7026 8.32111 31.5897 7.96787 31.3754C7.61463 31.1611 7.32723 30.8536 7.13717 30.4868C5.69685 27.5649 5.07642 24.307 5.34203 21.0603C5.60763 17.8135 6.7493 14.6998 8.64534 12.0509C10.5414 9.40195 13.1207 7.31721 16.1084 6.01888C19.096 4.72055 22.38 4.25731 25.6102 4.67853C27.2446 4.87064 28.8432 5.29492 30.3578 5.93857C30.7135 6.11266 31.1089 6.18978 31.504 6.16212C31.8991 6.13446 32.2799 6.00302 32.6079 5.78106C32.9496 5.55593 33.2235 5.24186 33.4 4.87266C33.5765 4.50346 33.649 4.09311 33.6097 3.68577C33.5703 3.27844 33.4206 2.88955 33.1767 2.56096C32.9328 2.23237 32.6039 1.97652 32.2254 1.82095C27.8787 -0.0428687 23.0552 -0.489662 18.4402 0.54404C13.8251 1.57774 9.65306 4.03938 6.51672 7.57927C3.38039 11.1192 1.43922 15.5573 0.968953 20.2633C0.498688 24.9693 1.52324 29.7038 3.89707 33.7943C4.28973 34.4745 4.85355 35.04 5.53249 35.4348C6.21143 35.8295 6.98185 36.0397 7.76718 36.0444H38.9306C39.7235 36.0476 40.5032 35.8411 41.1908 35.446C41.8783 35.0509 42.4492 34.4811 42.8457 33.7943C44.5836 30.7825 45.5998 27.4089 45.8145 23.9382C46.0292 20.4676 45.4366 16.9944 44.0832 13.7913C43.9118 13.4262 43.6454 13.114 43.3119 12.8872C42.9785 12.6603 42.5902 12.5273 42.1877 12.502C41.7852 12.4767 41.3833 12.5601 41.024 12.7433C40.6648 12.9266 40.3614 13.2031 40.1456 13.5438Z" fill="url(#paint0_linear_455_6124)"/>
<path d="M20.1899 19.376C19.3455 20.2204 18.8711 21.3656 18.8711 22.5598C18.8711 23.1511 18.9876 23.7366 19.2138 24.2829C19.4401 24.8292 19.7718 25.3255 20.1899 25.7437C20.608 26.1618 21.1044 26.4934 21.6506 26.7197C22.1969 26.946 22.7824 27.0624 23.3737 27.0624C24.5679 27.0624 25.7132 26.5881 26.5576 25.7437L39.2929 6.64062L20.1899 19.376Z" fill="url(#paint1_linear_455_6124)"/>
<defs>
<linearGradient id="paint0_linear_455_6124" x1="0.0409704" y1="18.7784" x2="46.5909" y2="18.7784" gradientUnits="userSpaceOnUse">
<stop stop-color="#6430E6"/>
<stop offset="1" stop-color="#895EF6"/>
</linearGradient>
<linearGradient id="paint1_linear_455_6124" x1="18.5006" y1="17.2799" x2="39.6258" y2="17.2799" gradientUnits="userSpaceOnUse">
<stop stop-color="#6430E6"/>
<stop offset="1" stop-color="#895EF6"/>
</linearGradient>
</defs>
</svg>
