<svg width="13" height="15" viewBox="0 0 13 15" fill="none" xmlns="http://www.w3.org/2000/svg">
<path d="M0.857422 12.75V11.25H2.35742V6C2.35742 4.9625 2.66992 4.04063 3.29492 3.23438C3.91992 2.42812 4.73242 1.9 5.73242 1.65V1.125C5.73242 0.8125 5.8418 0.546875 6.06055 0.328125C6.2793 0.109375 6.54492 0 6.85742 0C7.16992 0 7.43555 0.109375 7.6543 0.328125C7.87305 0.546875 7.98242 0.8125 7.98242 1.125V1.65C8.98242 1.9 9.79492 2.42812 10.4199 3.23438C11.0449 4.04063 11.3574 4.9625 11.3574 6V11.25H12.8574V12.75H0.857422ZM6.85742 15C6.44492 15 6.0918 14.8531 5.79805 14.5594C5.5043 14.2656 5.35742 13.9125 5.35742 13.5H8.35742C8.35742 13.9125 8.21055 14.2656 7.9168 14.5594C7.62305 14.8531 7.26992 15 6.85742 15ZM3.85742 11.25H9.85742V6C9.85742 5.175 9.56367 4.46875 8.97617 3.88125C8.38867 3.29375 7.68242 3 6.85742 3C6.03242 3 5.32617 3.29375 4.73867 3.88125C4.15117 4.46875 3.85742 5.175 3.85742 6V11.25Z" fill="white"/>
</svg>
