<svg width="32" height="44" viewBox="0 0 32 44" fill="none" xmlns="http://www.w3.org/2000/svg">
<path d="M21.0672 16.5877V5.14713C21.0672 3.40957 19.6576 2 17.9201 2C16.1825 2 14.7749 3.40957 14.7749 5.14713V14.5846" stroke="url(#paint0_linear_455_6131)" stroke-width="3.5" stroke-linecap="round"/>
<path d="M25.3579 23.1613L29.6061 9.00311C29.7243 8.61051 29.7632 8.19832 29.7206 7.79053C29.678 7.38274 29.5548 6.98749 29.358 6.62778C29.1613 6.26806 28.8949 5.95107 28.5746 5.69523C28.2542 5.43939 27.8861 5.24981 27.4918 5.13753C27.0996 5.02578 26.6893 4.99263 26.2843 5.03998C25.8793 5.08734 25.4877 5.21426 25.1319 5.41347C24.7761 5.61267 24.4632 5.88023 24.2112 6.20075C23.9591 6.52128 23.7729 6.88845 23.6633 7.28117L21.0667 16.582M8.32199 16.1505L10.3817 20.7209C10.7 21.4775 10.7102 22.3285 10.41 23.0924C10.1098 23.8564 9.52295 24.4728 8.77469 24.8103C8.02644 25.1477 7.17596 25.1795 6.40462 24.8988C5.63328 24.6181 5.00214 24.0471 4.64579 23.3077L2.58219 18.7373C2.41234 18.3605 2.31838 17.9538 2.30568 17.5406C2.29299 17.1274 2.3618 16.7158 2.50819 16.3292C2.80384 15.5484 3.39754 14.9171 4.15869 14.574C4.91983 14.231 5.78607 14.2044 6.56684 14.5C7.34761 14.7957 7.97896 15.3894 8.32199 16.1505Z" stroke="url(#paint1_linear_455_6131)" stroke-width="3.5" stroke-linecap="round"/>
<path d="M16.3223 22.0327C16.7224 20.9243 16.6748 19.7037 16.1896 18.6298L14.0948 13.9833C13.9273 13.6122 13.6883 13.2777 13.3913 12.9992C13.0943 12.7207 12.7453 12.5035 12.3642 12.3602C11.9831 12.2169 11.5774 12.1503 11.1705 12.1641C10.7636 12.178 10.3634 12.2721 9.99294 12.441C9.61662 12.6127 9.27856 12.8581 8.99879 13.1628C8.71901 13.4675 8.5032 13.8251 8.36412 14.2147C8.22504 14.6043 8.16553 15.0178 8.18911 15.4307C8.21269 15.8437 8.31887 16.2477 8.50138 16.6189L8.76494 17.1578" stroke="url(#paint2_linear_455_6131)" stroke-width="3.5" stroke-linecap="round"/>
<path d="M20.4978 32.6043L21.4583 30.6832C21.4809 30.6382 21.4934 30.5887 21.4948 30.5384C21.4961 30.488 21.4864 30.4379 21.4663 30.3917C21.4462 30.3455 21.4162 30.3043 21.3783 30.271C21.3405 30.2377 21.2958 30.2131 21.2474 30.199L14.3167 28.1608C13.6439 27.9618 13.0619 27.5337 12.6715 26.9508C12.2811 26.3678 12.1068 25.6667 12.179 24.9688C12.2614 24.1838 12.6498 23.4628 13.2601 22.9622C13.8703 22.4615 14.6533 22.2215 15.4393 22.2941L24.787 23.1649C24.787 23.1649 32.2253 24.3089 29.6483 31.7453C27.0751 39.1836 26.218 41.7567 20.4978 41.7567H10.7733C8.57338 41.7562 6.46371 40.8821 4.90814 39.3265C3.35257 37.7709 2.47843 35.6613 2.47791 33.4614L2.19092 17.4446" stroke="url(#paint3_linear_455_6131)" stroke-width="3.5" stroke-linecap="round"/>
<defs>
<linearGradient id="paint0_linear_455_6131" x1="14.6607" y1="9.59986" x2="21.1698" y2="9.59986" gradientUnits="userSpaceOnUse">
<stop stop-color="#6430E6"/>
<stop offset="1" stop-color="#895EF6"/>
</linearGradient>
<linearGradient id="paint1_linear_455_6131" x1="1.80647" y1="15.4748" x2="30.1845" y2="15.4748" gradientUnits="userSpaceOnUse">
<stop stop-color="#6430E6"/>
<stop offset="1" stop-color="#895EF6"/>
</linearGradient>
<linearGradient id="paint2_linear_455_6131" x1="8.03155" y1="17.3046" x2="16.7284" y2="17.3046" gradientUnits="userSpaceOnUse">
<stop stop-color="#6430E6"/>
<stop offset="1" stop-color="#895EF6"/>
</linearGradient>
<linearGradient id="paint3_linear_455_6131" x1="1.6829" y1="30.1107" x2="30.6473" y2="30.1107" gradientUnits="userSpaceOnUse">
<stop stop-color="#6430E6"/>
<stop offset="1" stop-color="#895EF6"/>
</linearGradient>
</defs>
</svg>
