<svg width="40" height="40" viewBox="0 0 40 40" fill="none" xmlns="http://www.w3.org/2000/svg">
<g clip-path="url(#clip0_689_9120)">
<path d="M0.857422 0.5H39.7606V21.5534L37.835 24.5696L39.7606 27.2541V39.5H0.857422V19.6531L2.06092 18.2657L0.857422 16.9385V0.5Z" fill="#016FD0"/>
<path d="M8.40918 27.6762V21.5532H14.8762L15.57 22.46L16.2868 21.5532H39.7604V27.2539C39.7604 27.2539 39.1465 27.6701 38.4365 27.6762H25.4387L24.6564 26.711V27.6762H22.093V26.0286C22.093 26.0286 21.7428 26.2586 20.9858 26.2586H20.1132V27.6762H16.2319L15.5391 26.75L14.8356 27.6762H8.40918Z" fill="white"/>
<path d="M0.857422 16.9381L2.31575 13.5298H4.83779L5.66541 15.439V13.5298H8.80053L9.29321 14.9097L9.77085 13.5298H23.8443V14.2235C23.8443 14.2235 24.5841 13.5298 25.8 13.5298L30.3663 13.5458L31.1796 15.43V13.5298H33.8032L34.5253 14.6121V13.5298H37.173V19.6527H34.5253L33.8333 18.5669V19.6527H29.9786L29.591 18.6875H28.5547L28.1734 19.6527H25.5593C24.5131 19.6527 23.8443 18.9732 23.8443 18.9732V19.6527H19.9028L19.1205 18.6875V19.6527H4.46416L4.07679 18.6875H3.04382L2.65918 19.6527H0.857422V16.9381Z" fill="white"/>
<path d="M2.83221 14.2847L0.865234 18.8694H2.14583L2.50877 17.9513H4.61865L4.9797 18.8694H6.28851L4.32342 14.2847H2.83221ZM3.55995 15.3517L4.20307 16.9559H2.91495L3.55995 15.3517Z" fill="#016FD0"/>
<path d="M6.42383 18.8689V14.2842L8.24363 14.291L9.30209 17.2469L10.3352 14.2842H12.1405V18.8689H10.9971V15.4907L9.78518 18.8689H8.78248L7.56715 15.4907V18.8689H6.42383Z" fill="#016FD0"/>
<path d="M12.9224 18.8689V14.2842H16.6532V15.3097H14.0777V16.0939H16.593V17.0591H14.0777V17.8735H16.6532V18.8689H12.9224Z" fill="#016FD0"/>
<path d="M17.3154 14.2847V18.8694H18.4588V17.2406H18.9402L20.311 18.8694H21.7082L20.2038 17.1803C20.8212 17.128 21.4581 16.5968 21.4581 15.7721C21.4581 14.8073 20.7027 14.2847 19.8597 14.2847H17.3154ZM18.4588 15.3102H19.7657C20.0792 15.3102 20.3073 15.556 20.3073 15.7928C20.3073 16.0974 20.0118 16.2754 19.7826 16.2754H18.4588V15.3102Z" fill="#016FD0"/>
<path d="M23.0922 18.8689H21.9248V14.2842H23.0922V18.8689Z" fill="#016FD0"/>
<path d="M25.8604 18.8689H25.6084C24.3892 18.8689 23.6489 17.9059 23.6489 16.5954C23.6489 15.2524 24.3809 14.2842 25.9205 14.2842H27.1842V15.37H25.8743C25.2493 15.37 24.8073 15.859 24.8073 16.6067C24.8073 17.4946 25.3127 17.8675 26.0409 17.8675H26.3418L25.8604 18.8689Z" fill="#016FD0"/>
<path d="M28.3478 14.2847L26.3809 18.8694H27.6615L28.0244 17.9513H30.1343L30.4953 18.8694H31.8041L29.839 14.2847H28.3478ZM29.0756 15.3517L29.7187 16.9559H28.4306L29.0756 15.3517Z" fill="#016FD0"/>
<path d="M31.938 18.8689V14.2842H33.3916L35.2476 17.1647V14.2842H36.3909V18.8689H34.9844L33.0813 15.913V18.8689H31.938Z" fill="#016FD0"/>
<path d="M9.19189 26.8918V22.3071H12.9227V23.3327H10.3473V24.1169H12.8626V25.0821H10.3473V25.8965H12.9227V26.8918H9.19189Z" fill="#016FD0"/>
<path d="M27.4727 26.8918V22.3071H31.2035V23.3327H28.628V24.1169H31.1313V25.0821H28.628V25.8965H31.2035V26.8918H27.4727Z" fill="#016FD0"/>
<path d="M13.0672 26.8918L14.8837 24.6277L13.0239 22.3071H14.4644L15.572 23.7417L16.6833 22.3071H18.0673L16.232 24.5995L18.0519 26.8918H16.6117L15.5362 25.4798L14.4869 26.8918H13.0672Z" fill="#016FD0"/>
<path d="M18.188 22.3081V26.8928H19.3614V25.445H20.5649C21.5832 25.445 22.3551 24.9034 22.3551 23.8502C22.3551 22.9777 21.7497 22.3081 20.7135 22.3081H18.188ZM19.3614 23.3449H20.6288C20.9578 23.3449 21.193 23.5471 21.193 23.8728C21.193 24.1788 20.959 24.4006 20.6251 24.4006H19.3614V23.3449Z" fill="#016FD0"/>
<path d="M22.8516 22.3071V26.8918H23.9949V25.263H24.4763L25.8472 26.8918H27.2443L25.74 25.2027C26.3574 25.1505 26.9942 24.6193 26.9942 23.7945C26.9942 22.8297 26.2389 22.3071 25.3958 22.3071H22.8516ZM23.9949 23.3327H25.3018C25.6153 23.3327 25.8434 23.5785 25.8434 23.8152C25.8434 24.1198 25.5479 24.2978 25.3187 24.2978H23.9949V23.3327Z" fill="#016FD0"/>
<path d="M31.7331 26.8918V25.8965H34.0212C34.3598 25.8965 34.5064 25.713 34.5064 25.5119C34.5064 25.3192 34.3602 25.1243 34.0212 25.1243H32.9872C32.0884 25.1243 31.5879 24.5753 31.5879 23.7512C31.5879 23.016 32.0463 22.3071 33.3819 22.3071H35.6083L35.1269 23.3387H33.2013C32.8332 23.3387 32.7199 23.5323 32.7199 23.7172C32.7199 23.9073 32.86 24.1169 33.1412 24.1169H34.2243C35.2262 24.1169 35.661 24.6866 35.661 25.4327C35.661 26.2348 35.1765 26.8918 34.1698 26.8918H31.7331Z" fill="#016FD0"/>
<path d="M35.9294 26.8918V25.8965H38.2175C38.5561 25.8965 38.7027 25.713 38.7027 25.5119C38.7027 25.3192 38.5565 25.1243 38.2175 25.1243H37.1835C36.2847 25.1243 35.7842 24.5753 35.7842 23.7512C35.7842 23.016 36.2426 22.3071 37.5781 22.3071H39.8046L39.3232 23.3387H37.3976C37.0295 23.3387 36.9162 23.5323 36.9162 23.7172C36.9162 23.9073 37.0562 24.1169 37.3374 24.1169H38.4206C39.4225 24.1169 39.8573 24.6866 39.8573 25.4327C39.8573 26.2348 39.3728 26.8918 38.3661 26.8918H35.9294Z" fill="#016FD0"/>
</g>
<defs>
<clipPath id="clip0_689_9120">
<rect width="39" height="39" fill="white" transform="translate(0.857422 0.5)"/>
</clipPath>
</defs>
</svg>
