<svg width="49" height="38" viewBox="0 0 49 38" fill="none" xmlns="http://www.w3.org/2000/svg">
<g clip-path="url(#clip0_689_9147)">
<path d="M9.55696 37.4188V34.9633C9.55696 34.0239 8.9805 33.4089 7.9909 33.4089C7.49611 33.4089 6.95808 33.571 6.58818 34.105C6.29995 33.6568 5.88682 33.4089 5.26713 33.4089C4.854 33.4089 4.44087 33.5328 4.1142 33.981V33.4899H3.24951V37.4188H4.1142V35.2493C4.1142 34.5532 4.4841 34.2242 5.06056 34.2242C5.63702 34.2242 5.92525 34.5913 5.92525 35.2493V37.4188H6.78994V35.2493C6.78994 34.5532 7.20307 34.2242 7.7363 34.2242C8.31276 34.2242 8.60099 34.5913 8.60099 35.2493V37.4188H9.55696ZM22.3832 33.4899H20.9805V32.3027H20.1158V33.4899H19.3328V34.2671H20.1158V36.0694C20.1158 36.9706 20.4857 37.4999 21.4753 37.4999C21.8452 37.4999 22.2583 37.3759 22.5466 37.2138L22.2967 36.4747C22.0469 36.6368 21.7587 36.6797 21.5522 36.6797C21.139 36.6797 20.9757 36.4318 20.9757 36.0265V34.2671H22.3784V33.4899H22.3832ZM29.7235 33.4041C29.2287 33.4041 28.8972 33.652 28.6907 33.9763V33.4852H27.826V37.414H28.6907V35.2017C28.6907 34.5484 28.9789 34.1765 29.5169 34.1765C29.6803 34.1765 29.8868 34.2194 30.055 34.2576L30.3048 33.4375C30.1318 33.4041 29.8868 33.4041 29.7235 33.4041ZM18.6314 33.8142C18.2183 33.5281 17.6418 33.4041 17.0221 33.4041C16.0325 33.4041 15.3744 33.8952 15.3744 34.6724C15.3744 35.3256 15.8692 35.6975 16.7339 35.8167L17.147 35.8596C17.5986 35.9407 17.8484 36.0647 17.8484 36.2697C17.8484 36.5558 17.5169 36.7608 16.9405 36.7608C16.364 36.7608 15.9076 36.5558 15.6194 36.3508L15.2063 37.004C15.6578 37.333 16.2775 37.4951 16.8972 37.4951C18.0502 37.4951 18.7131 36.9611 18.7131 36.2268C18.7131 35.5307 18.1751 35.1635 17.3536 35.0395L16.9405 34.9966C16.5706 34.9537 16.2823 34.8727 16.2823 34.6295C16.2823 34.3434 16.5706 34.1813 17.0269 34.1813C17.5217 34.1813 18.0165 34.3863 18.2663 34.5103L18.6314 33.8142ZM41.637 33.4041C41.1422 33.4041 40.8108 33.652 40.6042 33.9763V33.4852H39.7395V37.414H40.6042V35.2017C40.6042 34.5484 40.8924 34.1765 41.4305 34.1765C41.5938 34.1765 41.8004 34.2194 41.9685 34.2576L42.2183 33.447C42.0502 33.4041 41.8052 33.4041 41.637 33.4041ZM30.5882 35.4544C30.5882 36.6416 31.4144 37.4999 32.6923 37.4999C33.2687 37.4999 33.6819 37.3759 34.095 37.0517L33.6819 36.3555C33.3504 36.6035 33.0237 36.7227 32.649 36.7227C31.9477 36.7227 31.4529 36.2316 31.4529 35.4544C31.4529 34.7153 31.9477 34.2242 32.649 34.1861C33.0189 34.1861 33.3504 34.31 33.6819 34.5532L34.095 33.8571C33.6819 33.5281 33.2687 33.4089 32.6923 33.4089C31.4144 33.4041 30.5882 34.2671 30.5882 35.4544ZM38.5866 35.4544V33.4899H37.7219V33.981C37.4337 33.6139 37.0205 33.4089 36.4825 33.4089C35.368 33.4089 34.5033 34.2671 34.5033 35.4544C34.5033 36.6416 35.368 37.4999 36.4825 37.4999C37.059 37.4999 37.4721 37.2948 37.7219 36.9277V37.4188H38.5866V35.4544ZM35.4112 35.4544C35.4112 34.7582 35.8628 34.1861 36.6074 34.1861C37.3088 34.1861 37.8036 34.7201 37.8036 35.4544C37.8036 36.1505 37.3088 36.7227 36.6074 36.7227C35.8676 36.6797 35.4112 36.1457 35.4112 35.4544ZM25.0638 33.4041C23.9108 33.4041 23.0846 34.2242 23.0846 35.4496C23.0846 36.6797 23.9108 37.4951 25.107 37.4951C25.6835 37.4951 26.2599 37.333 26.7163 36.9611L26.3032 36.346C25.9717 36.5939 25.5586 36.756 25.1502 36.756C24.6122 36.756 24.079 36.5081 23.9541 35.8167H26.8796C26.8796 35.6928 26.8796 35.6117 26.8796 35.4877C26.918 34.2242 26.1735 33.4041 25.0638 33.4041ZM25.0638 34.1431C25.6018 34.1431 25.9717 34.4721 26.0534 35.0825H23.9925C24.0742 34.5532 24.4441 34.1431 25.0638 34.1431ZM46.5465 35.4544V31.9355H45.6819V33.981C45.3936 33.6139 44.9805 33.4089 44.4425 33.4089C43.328 33.4089 42.4633 34.2671 42.4633 35.4544C42.4633 36.6416 43.328 37.4999 44.4425 37.4999C45.0189 37.4999 45.4321 37.2948 45.6819 36.9277V37.4188H46.5465V35.4544ZM43.3712 35.4544C43.3712 34.7582 43.8228 34.1861 44.5674 34.1861C45.2687 34.1861 45.7635 34.7201 45.7635 35.4544C45.7635 36.1505 45.2687 36.7227 44.5674 36.7227C43.8228 36.6797 43.3712 36.1457 43.3712 35.4544ZM14.4233 35.4544V33.4899H13.5586V33.981C13.2703 33.6139 12.8572 33.4089 12.3192 33.4089C11.2047 33.4089 10.34 34.2671 10.34 35.4544C10.34 36.6416 11.2047 37.4999 12.3192 37.4999C12.8956 37.4999 13.3088 37.2948 13.5586 36.9277V37.4188H14.4233V35.4544ZM11.2095 35.4544C11.2095 34.7582 11.661 34.1861 12.4056 34.1861C13.107 34.1861 13.6018 34.7201 13.6018 35.4544C13.6018 36.1505 13.107 36.7227 12.4056 36.7227C11.661 36.6797 11.2095 36.1457 11.2095 35.4544Z" fill="black"/>
<path d="M31.3329 3.65186H18.3433V26.815H31.3329V3.65186Z" fill="#FF5A00"/>
<path d="M19.2081 15.2332C19.2081 10.5272 21.4371 6.35039 24.8574 3.65168C22.3402 1.68724 19.1649 0.5 15.7013 0.5C7.49633 0.5 0.857422 7.08943 0.857422 15.2332C0.857422 23.3771 7.49633 29.9665 15.7013 29.9665C19.1649 29.9665 22.3402 28.7793 24.8574 26.8148C21.4323 24.1543 19.2081 19.9393 19.2081 15.2332Z" fill="#EB001B"/>
<path d="M48.8574 15.2332C48.8574 23.3771 42.2185 29.9665 34.0135 29.9665C30.55 29.9665 27.3746 28.7793 24.8574 26.8148C28.321 24.1113 30.5067 19.9393 30.5067 15.2332C30.5067 10.5272 28.2778 6.35039 24.8574 3.65168C27.3698 1.68724 30.5452 0.5 34.0087 0.5C42.2185 0.5 48.8574 7.13235 48.8574 15.2332Z" fill="#F79E1B"/>
</g>
<defs>
<clipPath id="clip0_689_9147">
<rect width="48" height="37" fill="white" transform="translate(0.857422 0.5)"/>
</clipPath>
</defs>
</svg>
