<svg width="65" height="32" viewBox="0 0 65 32" fill="none" xmlns="http://www.w3.org/2000/svg">
<g clip-path="url(#clip0_689_9099)">
<path fill-rule="evenodd" clip-rule="evenodd" d="M64.1248 6.96491H61.3018C61.1538 6.96476 61.0118 6.90769 60.9072 6.80623C60.8026 6.70477 60.7438 6.56723 60.7438 6.42382L60.745 3.65524C60.745 3.35651 60.9952 3.11471 61.303 3.11471L64.1265 3.11584C64.4343 3.11584 64.6839 3.3582 64.6839 3.65636L64.6827 6.42551C64.6827 6.72367 64.4331 6.96491 64.1248 6.96491ZM60.3627 3.11527L58.4451 3.11471C58.3954 3.11471 58.3461 3.10521 58.3002 3.08677C58.2543 3.06832 58.2126 3.04128 58.1775 3.0072C58.1423 2.97312 58.1145 2.93267 58.0955 2.88816C58.0765 2.84364 58.0668 2.79594 58.0669 2.74778V0.866364C58.0669 0.663455 58.2368 0.5 58.4457 0.5H60.3639C60.5728 0.5 60.7421 0.664582 60.7421 0.867491L60.7415 2.74778C60.7415 2.95069 60.5716 3.11527 60.3627 3.11527Z" fill="black"/>
<mask id="mask0_689_9099" style="mask-type:luminance" maskUnits="userSpaceOnUse" x="0" y="8" width="59" height="24">
<path d="M0.857422 8.19971H58.0583V31.3522H0.857422V8.19971Z" fill="white"/>
</mask>
<g mask="url(#mask0_689_9099)">
<path opacity="0.963" fill-rule="evenodd" clip-rule="evenodd" d="M58.0583 9.99207V19.3682C58.0583 20.8765 57.7075 22.1537 57.0285 23.1829C55.7182 25.1776 53.1803 26.24 49.5725 26.24H49.5457C45.9373 26.24 43.3994 25.1776 42.0891 23.1829C41.4101 22.1537 41.0593 20.8765 41.0593 19.3682V9.99207C41.0593 8.47758 41.6976 8.20309 43.4145 8.20309H43.955C45.6714 8.20309 46.3096 8.47758 46.3096 9.99207V13.5368L46.3108 13.5593V14.336C46.3108 14.3631 46.3131 14.3879 46.3131 14.4155V19.3682C46.3131 19.9735 46.4336 20.4554 46.682 20.8297C47.1504 21.5275 48.0766 21.8448 49.5591 21.847C51.0416 21.8448 51.9678 21.5275 52.4362 20.8285C52.6846 20.4549 52.8045 19.9729 52.8045 19.3682V14.4155C52.8045 14.3879 52.8062 14.3631 52.8068 14.336V13.5593L52.808 13.5368V9.99207C52.808 8.47758 53.4468 8.20309 55.1632 8.20309H55.7037C57.42 8.20309 58.0583 8.47758 58.0583 9.99207ZM39.2981 13.605L36.1069 25.9717C35.1713 29.597 33.5731 31.1532 30.5901 31.3421C30.5175 31.3484 30.4447 31.3518 30.3719 31.3522C29.729 31.3522 29.5259 31.0084 29.4067 30.4538L29.352 30.2137C29.2973 29.9611 29.2629 29.6782 29.4148 29.4798C29.562 29.2893 29.8256 29.2335 30.2305 29.2002C32.2285 29.0018 32.9063 28.1068 33.5725 26.0777C33.2565 26.1803 32.8778 26.2355 32.4676 26.2355C30.2724 26.2355 29.6842 24.7543 29.1896 22.9642L26.554 13.6117C26.4667 13.2939 26.4085 12.9709 26.5796 12.755C26.7507 12.5386 27.0835 12.5087 27.418 12.5087H27.6403C28.4693 12.5087 28.7876 12.7454 29.0035 13.5221L31.6117 22.7939C31.9492 23.9511 32.2878 24.1467 33.1338 24.1467C33.8244 24.1467 34.2282 23.9381 34.5156 22.7985L36.8184 13.5266C37.0017 12.7561 37.327 12.5087 38.1555 12.5087H38.4051C38.7379 12.5087 39.0695 12.538 39.2446 12.7511C39.4197 12.9647 39.3744 13.2877 39.2981 13.605ZM23.1917 19.8754H20.1214C17.6528 19.8754 16.691 20.483 16.691 22.0426C16.691 23.4647 17.6499 24.1563 19.6216 24.1563C22.6064 24.1563 23.1911 23.273 23.1911 21.7473L23.1917 19.8754ZM19.6222 12.1153C23.6618 12.1153 25.6254 13.5514 25.6254 16.506V21.8279C25.6254 24.8828 23.7828 26.2451 19.6501 26.2451C16.1726 26.2451 14.2579 24.7526 14.2579 22.0426C14.2579 19.2487 16.1121 17.9478 20.0941 17.9478H23.1917V16.506C23.1917 14.8901 22.1898 14.2312 19.7333 14.2312C18.3661 14.2312 17.1152 14.4268 16.7248 14.5215C16.5584 14.5615 16.4193 14.5812 16.3 14.5812C16.0539 14.5812 15.8724 14.4961 15.7589 14.3281C15.6624 14.1844 15.617 13.9792 15.617 13.6839V13.4686C15.617 12.7139 15.9038 12.5318 16.5886 12.3881C16.9749 12.3126 17.9949 12.1153 19.6222 12.1153ZM11.8165 13.9077C11.8165 16.1323 11.2301 17.3379 8.13655 17.3379H3.37437V11.5962C3.37437 10.7998 3.6804 10.5039 4.50193 10.5039H8.13655C10.4673 10.5039 11.8165 11.0607 11.8165 13.9077ZM8.13655 8.19971H4.03066C1.83604 8.19971 0.857422 9.14774 0.857422 11.2738V24.9273C0.857422 25.7485 1.12971 26.0123 1.97742 26.0123H2.25495C3.10266 26.0123 3.37437 25.7485 3.37437 24.9273V19.6156H8.13655C12.3646 19.6156 14.3341 17.8018 14.3341 13.9077C14.3341 10.0129 12.3646 8.19971 8.13655 8.19971Z" fill="black"/>
</g>
<path opacity="0.921" fill-rule="evenodd" clip-rule="evenodd" d="M59.9906 12.1457L56.189 12.1446C55.99 12.1446 55.7991 12.0679 55.6583 11.9316C55.5176 11.7952 55.4385 11.6103 55.4385 11.4175L55.4402 7.689C55.4402 7.28713 55.7765 6.96191 56.1908 6.96191L59.9924 6.96304C60.4072 6.96304 60.7429 7.28882 60.7429 7.69013L60.7418 11.4191C60.7418 11.5147 60.7223 11.6093 60.6846 11.6975C60.6468 11.7858 60.5915 11.866 60.5217 11.9335C60.452 12.001 60.3692 12.0546 60.278 12.0911C60.1869 12.1276 60.0892 12.1458 59.9906 12.1457Z" fill="black"/>
</g>
<defs>
<clipPath id="clip0_689_9099">
<rect width="64" height="31" fill="white" transform="translate(0.857422 0.5)"/>
</clipPath>
</defs>
</svg>
