<svg width="71" height="22" viewBox="0 0 71 22" fill="none" xmlns="http://www.w3.org/2000/svg">
<g clip-path="url(#clip0_689_9154)">
<path fill-rule="evenodd" clip-rule="evenodd" d="M45.0833 6.95639C45.0836 13.958 45.0822 13.8434 45.178 14.5796C45.3128 15.6148 45.6146 16.579 46.0536 17.3767C46.7495 18.6407 47.8528 19.5863 49.2999 20.1586C49.7433 20.3342 50.4907 20.5401 51.0374 20.6376C51.7416 20.7631 52.3502 20.8157 53.3101 20.8343L54.0253 20.8481V18.7287V16.6093L53.0876 16.5965C51.9517 16.5811 51.7212 16.5557 51.2069 16.3889C50.2547 16.0801 49.6283 15.378 49.3659 14.3253C49.2462 13.8451 49.2489 13.9111 49.2417 11.2686L49.2351 8.82654H51.6302H54.0253V6.69692V4.56731H51.6309H49.2365L49.2311 2.45361L49.2257 0.339909L47.1544 0.334505L45.083 0.329102L45.0833 6.95639ZM1.00781 4.58143C1.00781 4.59376 1.49107 5.9786 1.6647 6.46382C1.69808 6.55706 1.94123 7.24839 2.20505 8.00008C2.46886 8.75184 2.71204 9.44319 2.74541 9.53641C2.77879 9.62962 2.99336 10.2398 3.22221 10.8925C3.45109 11.5451 3.66561 12.1555 3.69897 12.2487C3.73232 12.342 3.97548 13.0332 4.23929 13.785C4.5031 14.5367 4.74629 15.228 4.77966 15.3213C4.81303 15.4145 5.0276 16.0247 5.25646 16.6774C5.48533 17.3301 5.69983 17.9403 5.73312 18.0336C5.79125 18.1962 5.9193 18.5609 6.46794 20.1258L6.71853 20.8406L8.88317 20.8409L11.0478 20.8412L11.0687 20.7829C11.0801 20.7509 11.5633 19.3802 12.1423 17.7369C12.7213 16.0936 13.223 14.6704 13.2571 14.5743C13.2913 14.4781 13.3472 14.3208 13.3814 14.2246C13.4156 14.1285 13.5928 13.6255 13.775 13.1069C13.9574 12.5882 14.1352 12.083 14.1704 11.9838C14.2055 11.8848 14.2629 11.7226 14.2979 11.6236C14.3329 11.5245 14.3885 11.3672 14.4215 11.2739C14.4545 11.1807 14.6021 10.7611 14.7496 10.3417C14.8971 9.922 15.0456 9.50012 15.0796 9.404C15.1136 9.3078 15.1702 9.14808 15.2051 9.04897C15.2401 8.94994 15.2966 8.79026 15.3306 8.69404C15.3646 8.5979 15.5418 8.09493 15.7242 7.57629C16.0398 6.67893 16.0906 6.53483 16.24 6.11419C16.4888 5.41323 16.7733 4.59647 16.7732 4.58321C16.7732 4.57446 15.5487 4.56731 14.052 4.56731H11.3308L11.2874 4.76333C11.1552 5.35906 9.24034 14.0226 9.04639 14.9017C8.91998 15.4752 8.81068 15.9376 8.80368 15.9295C8.79661 15.9213 8.76596 15.7906 8.73554 15.6391C8.68708 15.3976 8.57735 14.868 8.12525 12.6937C8.06708 12.414 8.01097 12.1423 8.00052 12.0898C7.99008 12.0374 7.93392 11.7656 7.87574 11.4858C7.81752 11.2062 7.68773 10.5816 7.58731 10.0979C7.48689 9.61426 7.35711 8.98972 7.2989 8.70994C7.2407 8.43027 7.18457 8.15851 7.17419 8.10603C7.16379 8.05363 7.1162 7.82475 7.06843 7.59749C7.02065 7.37022 6.97294 7.14137 6.9624 7.08893C6.95185 7.03648 6.89467 6.75995 6.83534 6.47442C6.72096 5.9239 6.64911 5.5774 6.52124 4.95933L6.44231 4.57791L3.72507 4.57254C2.23058 4.56958 1.00781 4.57357 1.00781 4.58143ZM24.1261 4.57969C22.0525 4.69119 20.4301 5.31829 19.3056 6.44291C18.2647 7.48398 17.6412 8.90794 17.3989 10.7973C17.2677 11.8208 17.2676 13.3941 17.3987 14.415C17.7981 17.5231 19.2567 19.5054 21.767 20.3515C22.7005 20.6661 23.714 20.8247 24.7936 20.8248C26.6117 20.825 28.1428 20.3966 29.288 19.5672C30.2837 18.8462 30.9768 17.8947 31.4925 16.5406C31.5434 16.407 31.585 16.2854 31.585 16.2704C31.585 16.2482 31.1862 16.243 29.4789 16.243H27.3729L27.1851 16.4042C26.6973 16.8231 26.1118 17.1311 25.5422 17.2685C25.0543 17.3862 24.4306 17.3951 23.9236 17.2914C22.6338 17.0275 21.8441 16.0787 21.5871 14.4842C21.5637 14.3386 21.5387 14.1621 21.5316 14.0922C21.5246 14.0223 21.5134 13.9198 21.5067 13.8645L21.4946 13.7638H26.7499H32.0052L32.0204 13.6029C32.0458 13.3308 32.0156 11.649 31.9789 11.2952C31.8314 9.87497 31.5658 8.86628 31.0888 7.91533C30.4986 6.73904 29.6675 5.90508 28.5231 5.34088C27.7256 4.94773 26.9621 4.73955 25.8743 4.61868C25.613 4.58965 24.4312 4.56327 24.1261 4.57969ZM41.8198 4.58158C41.1682 4.59408 40.3748 4.67844 39.7431 4.80229C38.458 5.05435 37.4318 5.49306 36.5329 6.17477C36.2581 6.38315 35.6872 6.95475 35.4762 7.23281C34.6957 8.26112 34.2253 9.50132 34.022 11.0662C33.9192 11.8578 33.9163 12.007 33.9161 16.5662L33.9159 20.8412H35.992H38.0681L38.0751 16.3119C38.0825 11.5487 38.0791 11.7184 38.1778 11.2316C38.4085 10.0941 39.051 9.34894 40.095 9.00782C40.561 8.85566 40.8573 8.82654 41.94 8.82654H42.8581V6.69692V4.56731L42.4714 4.5719C42.2587 4.57442 41.9655 4.57878 41.8198 4.58158ZM62.9569 4.58077C62.2931 4.59764 61.5423 4.69515 60.9312 4.84391C59.9816 5.07511 59.099 5.49572 58.4412 6.03055C57.1924 7.04587 56.4167 8.59547 56.1243 10.6595C56.0232 11.3736 56.0072 11.6493 56.0069 12.7043C56.0065 13.7037 56.0152 13.8885 56.0929 14.5266C56.4918 17.8049 58.075 19.8186 60.8166 20.5344C61.6329 20.7476 62.3267 20.8263 63.3806 20.8254C64.2901 20.8246 64.8924 20.766 65.6116 20.6084C68.4816 19.9793 70.1685 18.0125 70.637 14.7492C70.7388 14.0397 70.7536 13.7828 70.7536 12.7149C70.7536 11.6467 70.74 11.4117 70.636 10.6701C70.2993 8.2675 69.29 6.55183 67.6379 5.57321C66.4399 4.86353 64.8763 4.53204 62.9569 4.58077ZM24.2307 7.81995C22.7546 7.99886 21.885 8.99578 21.5735 10.8661L21.5602 10.9455H24.6249H27.6895L27.6778 10.8872C27.6715 10.8551 27.651 10.7337 27.6323 10.6171C27.4449 9.44677 26.9553 8.60916 26.2015 8.16885C25.6795 7.86402 24.9429 7.73359 24.2307 7.81995ZM63.031 8.05431C62.8216 8.07744 62.6013 8.11508 62.4599 8.15204C61.3073 8.45324 60.5725 9.3947 60.2876 10.9349C60.0984 11.9578 60.0948 13.3208 60.2787 14.3445C60.5162 15.6676 61.0615 16.5579 61.8977 16.9886C62.3216 17.2069 62.7517 17.3015 63.3225 17.3021C64.1993 17.3032 64.8217 17.0663 65.3528 16.5294C65.7598 16.1179 66.0442 15.569 66.2417 14.8139C66.4996 13.8275 66.5698 12.4506 66.4211 11.2926C66.2287 9.79395 65.7032 8.8387 64.811 8.36562C64.4164 8.15638 64.0343 8.06808 63.4655 8.05462C63.2673 8.04997 63.0718 8.04983 63.031 8.05431Z" fill="url(#paint0_linear_689_9154)"/>
</g>
<defs>
<linearGradient id="paint0_linear_689_9154" x1="1.00781" y1="20.8481" x2="70.7536" y2="20.8481" gradientUnits="userSpaceOnUse">
<stop stop-color="#0F8C93"/>
<stop offset="1" stop-color="#EA566E"/>
</linearGradient>
<clipPath id="clip0_689_9154">
<rect width="70" height="21.3415" fill="white" transform="translate(0.857422 0.329102)"/>
</clipPath>
</defs>
</svg>
