<svg width="11" height="12" viewBox="0 0 11 12" fill="none" xmlns="http://www.w3.org/2000/svg">
<path d="M5.23242 11.7656C3.97201 11.6094 2.92773 11.0599 2.09961 10.1172C1.27148 9.17448 0.857422 8.06771 0.857422 6.79688C0.857422 6.10938 0.992839 5.45052 1.26367 4.82031C1.53451 4.1901 1.91992 3.64063 2.41992 3.17188L3.31055 4.0625C2.91471 4.41667 2.61523 4.82812 2.41211 5.29688C2.20898 5.76562 2.10742 6.26562 2.10742 6.79688C2.10742 7.71354 2.39909 8.52344 2.98242 9.22656C3.56576 9.92969 4.31576 10.3594 5.23242 10.5156V11.7656ZM6.48242 11.7656V10.5156C7.38867 10.349 8.13607 9.91667 8.72461 9.21875C9.31315 8.52083 9.60742 7.71354 9.60742 6.79688C9.60742 5.75521 9.24284 4.86979 8.51367 4.14062C7.78451 3.41146 6.89909 3.04688 5.85742 3.04688H5.81055L6.49805 3.73438L5.62305 4.60938L3.43555 2.42188L5.62305 0.234375L6.49805 1.10938L5.81055 1.79688H5.85742C7.25326 1.79688 8.43555 2.28125 9.4043 3.25C10.373 4.21875 10.8574 5.40104 10.8574 6.79688C10.8574 8.05729 10.4434 9.15885 9.61523 10.1016C8.78711 11.0443 7.74284 11.599 6.48242 11.7656Z" fill="#1C1B1F"/>
</svg>
