<svg width="93" height="26" viewBox="0 0 93 26" fill="none" xmlns="http://www.w3.org/2000/svg">
<path d="M6.99285 1.57373L0.857422 19.5505H4.46198L6.19524 14.3047H11.1803L12.9595 19.5505H16.6408L10.49 1.57373H6.99285ZM10.306 11.3137H7.08488L8.43467 7.35637C8.5267 7.08027 8.61873 6.81952 8.69542 6.55876C8.78746 6.83485 8.86415 7.11095 8.97152 7.40238L10.306 11.3137Z" fill="black"/>
<path d="M22.6989 11.3593C21.0423 10.6997 20.8583 10.393 20.8583 9.91748C20.8583 9.30394 21.3645 8.93581 22.1927 8.93581C23.1591 8.93581 23.926 9.31927 24.2941 9.54935L24.9997 9.99417L25.9353 7.1412L25.5059 6.8651C24.6929 6.32826 23.4658 6.02148 22.2234 6.02148C19.4471 6.02148 17.4378 7.77008 17.4378 10.1936C17.4378 12.4177 19.4011 13.5987 21.0577 14.1969C22.6989 14.8105 22.837 15.24 22.837 15.7615C22.837 16.7431 21.8093 16.8812 21.1957 16.8812C20.2447 16.8812 19.2171 16.4824 18.6342 16.1296L17.9286 15.7155L17.0083 18.6144L17.4531 18.8752C18.4655 19.4734 19.8153 19.8108 21.1497 19.8108C24.2021 19.8108 26.2574 18.0929 26.2574 15.5467C26.2574 12.9852 24.2174 11.9268 22.6989 11.3593Z" fill="black"/>
<path d="M31.6727 3.16797L28.2368 4.21099V6.26636H26.3809V9.2267H28.2368V15.1014C28.2368 16.7426 28.5589 17.9083 29.2492 18.6906C29.9241 19.4115 30.9211 19.8256 32.0868 19.8256C33.1298 19.8256 33.8814 19.6109 34.2342 19.4882L34.6944 19.3348L34.5103 16.3591L33.7127 16.5892C33.4826 16.6506 33.2065 16.7119 32.639 16.7119C32.2248 16.7119 31.6573 16.7119 31.6573 15.04V9.2267H34.771V6.26636H31.6727V3.16797Z" fill="black"/>
<path d="M43.1608 6.14342L42.532 6.05138C42.3479 6.02071 42.1638 6.00537 41.9184 6.00537C40.8294 6.00537 39.8324 6.45019 39.0655 7.23246L39.0194 6.26613H35.7983L35.8444 6.95636C35.9057 7.98404 35.9517 9.14977 35.9517 10.653V19.5493H39.4336V12.5243C39.4336 12.2021 39.4643 11.8647 39.4949 11.6346C39.7557 10.2541 40.6146 9.39519 41.7804 9.39519C42.0565 9.39519 42.2252 9.39519 42.3786 9.42587L43.1762 9.59459L43.1608 6.14342Z" fill="black"/>
<path d="M49.496 6.02148C45.6153 6.02148 42.9004 8.88979 42.9004 13.0159C42.9004 17.0346 45.5233 19.8262 49.2966 19.8262C52.487 19.8262 55.9075 17.6328 55.9075 12.8165C55.9228 8.8131 53.2846 6.02148 49.496 6.02148ZM52.395 12.8932C52.395 15.2093 51.1372 16.8965 49.4193 16.8965C47.7014 16.8965 46.4589 15.2246 46.4589 12.9545C46.4589 11.482 47.0878 8.98183 49.4653 8.98183C51.7814 8.95115 52.395 11.528 52.395 12.8932Z" fill="black"/>
<path d="M67.3343 2.99939C66.1992 1.97171 64.466 1.4502 62.2265 1.4502C60.7234 1.4502 59.2969 1.55757 57.9778 1.77231L57.4409 1.86434V19.5497H60.8921V12.9848C61.2449 13.0155 61.613 13.0308 61.9811 13.0308C64.3126 13.0308 66.2913 12.3099 67.549 11.0061C68.5307 9.99377 69.0215 8.64398 69.0215 6.98741C69.0062 5.37687 68.408 3.96572 67.3343 2.99939ZM65.555 7.09478C65.555 9.61031 63.3463 9.97843 62.0271 9.97843C61.5823 9.97843 61.2142 9.9631 60.9074 9.91708V4.51791C61.2449 4.47189 61.705 4.45655 62.2879 4.45655C63.7604 4.45655 65.555 4.91671 65.555 7.09478Z" fill="black"/>
<path d="M79.59 16.0222V11.5434C79.59 7.96948 77.734 6.02148 74.3902 6.02148C72.841 6.02148 71.2151 6.45097 70.0954 7.15654L69.6506 7.43263L70.5862 10.1936L71.2918 9.71808C72.0127 9.22724 73.0558 8.93581 74.0681 8.93581C74.7737 8.92047 75.2798 9.0892 75.6173 9.41131C75.8934 9.6874 76.0621 10.1015 76.1235 10.6231C73.4085 10.6997 71.4299 11.344 70.2028 12.5557C69.3592 13.3993 68.9297 14.4577 68.9297 15.7308C68.9297 17.7708 70.4022 19.8262 73.2552 19.8262C74.4669 19.8262 75.602 19.4427 76.4916 18.7678L76.5836 19.5654H79.8814L79.7587 18.8138C79.6513 18.0776 79.59 17.1419 79.59 16.0222ZM73.792 16.9119C73.2705 16.9119 72.4115 16.7278 72.4115 15.4854C72.4115 15.0099 72.5496 14.6264 72.8564 14.335C73.2552 13.9362 74.1601 13.476 76.1848 13.4453V14.8718C76.1848 14.9792 76.1695 15.1633 76.1235 15.3473C75.8781 16.0682 75.1265 16.9119 73.792 16.9119Z" fill="black"/>
<path d="M89.1758 6.2666L86.6449 13.7365C86.5836 13.9205 86.5222 14.1199 86.4609 14.304C86.3995 14.1199 86.3382 13.9359 86.2615 13.7672L83.5005 6.2666H79.7119L84.4669 18.1847L84.4822 18.2153C84.5589 18.3687 84.5896 18.4608 84.5896 18.4914C84.5589 18.5528 84.5129 18.6755 84.4822 18.7522C84.0681 19.6265 83.4545 20.4548 82.841 20.9456L82.8256 20.9609C82.1354 21.5591 81.4298 21.8199 81.1384 21.8966L80.5249 22.096L81.4145 25.0717L81.982 24.9643C82.3348 24.9029 83.5619 24.6115 84.973 23.4304C86.6603 21.9273 87.78 19.5498 89.2525 15.6845L92.8571 6.2666H89.1758Z" fill="black"/>
<path d="M13.5569 6.51194C15.7964 4.2265 19.6003 2.86137 23.7264 2.86137C25.3369 2.86137 26.9015 3.06077 28.3893 3.47491L28.512 3.50559L31.1502 2.70798L29.9692 2.24783C27.7144 1.38887 25.1222 0.928711 22.4533 0.928711C18.5726 0.928711 14.9527 1.86436 12.2685 3.56694L11.9771 3.751L13.0968 7.01812L13.5569 6.51194Z" fill="#FF0000"/>
</svg>
