<svg width="63" height="20" viewBox="0 0 63 20" fill="none" xmlns="http://www.w3.org/2000/svg">
<g clip-path="url(#clip0_689_9140)">
<path d="M27.7241 19.226H22.7017L25.843 0.833496H30.8652L27.7241 19.226Z" fill="#00579F"/>
<path d="M45.9307 1.28304C44.94 0.910896 43.3688 0.5 41.4259 0.5C36.4661 0.5 32.9735 3.00438 32.952 6.58489C32.9109 9.22658 35.4527 10.6938 37.3538 11.5747C39.2969 12.4747 39.9574 13.0622 39.9574 13.8645C39.9376 15.0967 38.3873 15.6646 36.9413 15.6646C34.9361 15.6646 33.8617 15.3718 32.2289 14.6863L31.5676 14.3924L30.8647 18.5211C32.0427 19.0293 34.2129 19.4802 36.4661 19.5C41.736 19.5 45.1669 17.0344 45.2075 13.2188C45.2276 11.125 43.8854 9.52071 40.9917 8.20975C39.2351 7.36819 38.1593 6.80074 38.1593 5.93968C38.1799 5.1569 39.0692 4.35513 41.0522 4.35513C42.6849 4.31586 43.8846 4.68749 44.7934 5.05938L45.2476 5.25468L45.9307 1.28304Z" fill="#00579F"/>
<path d="M52.606 12.7102C53.0196 11.6536 54.6112 7.56412 54.6112 7.56412C54.5903 7.60339 55.024 6.48799 55.272 5.80325L55.623 7.38806C55.623 7.38806 56.5741 11.7906 56.7806 12.7102C55.9957 12.7102 53.598 12.7102 52.606 12.7102ZM58.8055 0.833496H54.9207C53.7227 0.833496 52.8125 1.16585 52.2956 2.35953L44.8354 19.2257H50.1053C50.1053 19.2257 50.9729 16.9557 51.1594 16.4668C51.7376 16.4668 56.8641 16.4668 57.6078 16.4668C57.752 17.1125 58.2071 19.2257 58.2071 19.2257H62.8574L58.8055 0.833496Z" fill="#00579F"/>
<path d="M18.5069 0.833496L13.5883 13.3754L13.0508 10.8318C12.1414 7.89673 9.28952 4.70787 6.10693 3.12229L10.6122 19.2065H15.9233L23.8177 0.833496H18.5069Z" fill="#00579F"/>
<path d="M9.0207 0.833496H0.94009L0.857422 1.20512C7.1608 2.73142 11.3354 6.41049 13.0506 10.8326L11.2939 2.37955C11.0047 1.20486 10.116 0.872245 9.0207 0.833496Z" fill="#FAA61A"/>
</g>
<defs>
<clipPath id="clip0_689_9140">
<rect width="62" height="19" fill="white" transform="translate(0.857422 0.5)"/>
</clipPath>
</defs>
</svg>
