<svg width="17" height="17" viewBox="0 0 17 17" fill="none" xmlns="http://www.w3.org/2000/svg">
<path d="M5.65742 11.7H15.2574V2.1H13.6574V7.7L11.6574 6.5L9.65742 7.7V2.1H5.65742V11.7ZM5.65742 13.3C5.21742 13.3 4.84076 13.1433 4.52742 12.83C4.21409 12.5167 4.05742 12.14 4.05742 11.7V2.1C4.05742 1.66 4.21409 1.28333 4.52742 0.97C4.84076 0.656667 5.21742 0.5 5.65742 0.5H15.2574C15.6974 0.5 16.0741 0.656667 16.3874 0.97C16.7008 1.28333 16.8574 1.66 16.8574 2.1V11.7C16.8574 12.14 16.7008 12.5167 16.3874 12.83C16.0741 13.1433 15.6974 13.3 15.2574 13.3H5.65742ZM2.45742 16.5C2.01742 16.5 1.64076 16.3433 1.32742 16.03C1.01409 15.7167 0.857422 15.34 0.857422 14.9V3.7H2.45742V14.9H13.6574V16.5H2.45742Z" fill="#6F6F6F"/>
</svg>
