<svg width="18" height="15" viewBox="0 0 18 15" fill="none" xmlns="http://www.w3.org/2000/svg">
<path d="M2.40288 14.8409C1.97788 14.8409 1.61405 14.6896 1.3114 14.3869C1.00875 14.0843 0.857422 13.7204 0.857422 13.2954V3.24997H2.40288V13.2954H15.5392V14.8409H2.40288ZM5.49379 11.75C5.06879 11.75 4.70496 11.5986 4.40231 11.296C4.09966 10.9933 3.94833 10.6295 3.94833 10.2045V1.70451C3.94833 1.27951 4.09966 0.915687 4.40231 0.613035C4.70496 0.310383 5.06879 0.159058 5.49379 0.159058H9.35742L10.9029 1.70451H16.312C16.737 1.70451 17.1008 1.85584 17.4034 2.15849C17.7061 2.46114 17.8574 2.82497 17.8574 3.24997V10.2045C17.8574 10.6295 17.7061 10.9933 17.4034 11.296C17.1008 11.5986 16.737 11.75 16.312 11.75H5.49379ZM5.49379 10.2045H16.312V3.24997H10.2654L8.71992 1.70451H5.49379V10.2045Z" fill="#6F6F6F"/>
</svg>
