<svg width="15" height="19" viewBox="0 0 15 19" fill="none" xmlns="http://www.w3.org/2000/svg">
<path d="M7.85742 9.5C8.33867 9.5 8.75065 9.32865 9.09336 8.98594C9.43607 8.64323 9.60742 8.23125 9.60742 7.75C9.60742 7.26875 9.43607 6.85677 9.09336 6.51406C8.75065 6.17135 8.33867 6 7.85742 6C7.37617 6 6.96419 6.17135 6.62148 6.51406C6.27878 6.85677 6.10742 7.26875 6.10742 7.75C6.10742 8.23125 6.27878 8.64323 6.62148 8.98594C6.96419 9.32865 7.37617 9.5 7.85742 9.5ZM7.85742 15.9313C9.63659 14.2979 10.9564 12.8141 11.8168 11.4797C12.6772 10.1453 13.1074 8.96042 13.1074 7.925C13.1074 6.33542 12.6007 5.03385 11.5871 4.02031C10.5736 3.00677 9.33034 2.5 7.85742 2.5C6.38451 2.5 5.14128 3.00677 4.12773 4.02031C3.11419 5.03385 2.60742 6.33542 2.60742 7.925C2.60742 8.96042 3.03763 10.1453 3.89805 11.4797C4.75846 12.8141 6.07826 14.2979 7.85742 15.9313ZM7.85742 18.25C5.50951 16.2521 3.75586 14.3964 2.59648 12.6828C1.43711 10.9693 0.857422 9.38333 0.857422 7.925C0.857422 5.7375 1.56107 3.99479 2.96836 2.69688C4.37565 1.39896 6.00534 0.75 7.85742 0.75C9.70951 0.75 11.3392 1.39896 12.7465 2.69688C14.1538 3.99479 14.8574 5.7375 14.8574 7.925C14.8574 9.38333 14.2777 10.9693 13.1184 12.6828C11.959 14.3964 10.2053 16.2521 7.85742 18.25Z" fill="#6F6F6F"/>
</svg>
