<svg width="13" height="13" viewBox="0 0 13 13" fill="none" xmlns="http://www.w3.org/2000/svg">
<path d="M2.19076 12.5C1.82409 12.5 1.5102 12.3694 1.24909 12.1083C0.987977 11.8472 0.857422 11.5333 0.857422 11.1667V1.83333C0.857422 1.46667 0.987977 1.15278 1.24909 0.891667C1.5102 0.630556 1.82409 0.5 2.19076 0.5H11.5241C11.8908 0.5 12.2046 0.630556 12.4658 0.891667C12.7269 1.15278 12.8574 1.46667 12.8574 1.83333V11.1667C12.8574 11.5333 12.7269 11.8472 12.4658 12.1083C12.2046 12.3694 11.8908 12.5 11.5241 12.5H2.19076ZM2.19076 11.1667H11.5241V1.83333H2.19076V11.1667Z" fill="#6F6F6F"/>
</svg>
