<svg width="140" height="24" viewBox="0 0 140 24" fill="none" xmlns="http://www.w3.org/2000/svg">
<path d="M33.7707 16.7038L30.9355 4.55304H33.4578L35.4829 14.6787H35.667L37.9315 4.55304H40.9323L43.1784 14.6787H43.3809L45.4245 4.55304H47.8362L44.9458 16.7038H41.6688L39.4779 6.57817H39.3122L37.1214 16.7038H33.7707Z" fill="#1D1D39"/>
<path d="M50.5864 16.9432C50.0586 16.9432 49.5861 16.845 49.1688 16.6486C48.7515 16.44 48.4201 16.1331 48.1747 15.7281C47.9415 15.3231 47.8249 14.8199 47.8249 14.2185C47.8249 13.7152 47.9169 13.2857 48.101 12.9297C48.2974 12.5738 48.5858 12.2854 48.9663 12.0644C49.3468 11.8313 49.8193 11.641 50.3839 11.4937C50.9485 11.3342 51.6112 11.1992 52.3722 11.0887C52.7895 11.0273 53.127 10.966 53.3848 10.9046C53.6548 10.8432 53.8512 10.7512 53.9739 10.6284C54.0966 10.4934 54.158 10.2971 54.158 10.0393C54.158 9.65883 54.023 9.33359 53.753 9.06357C53.4952 8.78128 53.0718 8.64013 52.4827 8.64013C52.1267 8.64013 51.7831 8.7015 51.4517 8.82423C51.1326 8.94697 50.8564 9.14335 50.6232 9.41336C50.39 9.67111 50.2305 10.0148 50.1446 10.4443L48.0642 9.79998C48.1992 9.30904 48.3956 8.8856 48.6533 8.52967C48.9111 8.16146 49.2302 7.84849 49.6107 7.59074C49.9911 7.333 50.4268 7.14276 50.9178 7.02002C51.4087 6.89729 51.9488 6.83592 52.5379 6.83592C53.4339 6.83592 54.1703 6.9832 54.7471 7.27777C55.324 7.56006 55.7536 8.00804 56.0359 8.62172C56.3181 9.22312 56.4593 10.0025 56.4593 10.9598V12.764C56.4593 13.1813 56.4654 13.6171 56.4777 14.0712C56.5022 14.513 56.5268 14.961 56.5513 15.4151C56.5882 15.857 56.6311 16.2865 56.6802 16.7038H54.5998C54.5508 16.3602 54.5078 15.992 54.471 15.5992C54.4342 15.2065 54.4035 14.8076 54.3789 14.4026H54.0844C53.9125 14.869 53.6671 15.2985 53.3479 15.6913C53.0288 16.0718 52.6361 16.3786 52.1697 16.6118C51.7156 16.8327 51.1878 16.9432 50.5864 16.9432ZM51.5069 15.231C51.7524 15.231 51.9979 15.1881 52.2433 15.1022C52.5011 15.0162 52.7527 14.8874 52.9982 14.7155C53.2436 14.5437 53.4707 14.3351 53.6793 14.0896C53.888 13.8318 54.066 13.5311 54.2132 13.1875L54.1764 11.549L54.6183 11.6226C54.4096 11.7944 54.1519 11.9294 53.845 12.0276C53.5382 12.1258 53.2129 12.1995 52.8693 12.2486C52.5379 12.2976 52.2004 12.359 51.8567 12.4327C51.5253 12.494 51.2246 12.5799 50.9546 12.6904C50.6846 12.7886 50.4698 12.9359 50.3102 13.1322C50.1507 13.3164 50.0709 13.5741 50.0709 13.9055C50.0709 14.3228 50.2059 14.648 50.4759 14.8812C50.746 15.1144 51.0896 15.231 51.5069 15.231Z" fill="#1D1D39"/>
<path d="M58.2298 16.7038V3.63252H60.5127V16.7038H58.2298Z" fill="#1D1D39"/>
<path d="M62.3837 16.7038V3.63252H64.6666V16.7038H62.3837Z" fill="#1D1D39"/>
<path d="M75.4717 16.9432C74.588 16.9432 73.8025 16.802 73.1152 16.5197C72.4278 16.2375 71.8387 15.8324 71.3478 15.3047C70.8691 14.7646 70.5009 14.108 70.2431 13.3348C69.9854 12.5615 69.8565 11.6778 69.8565 10.6837C69.8565 9.24767 70.102 8.06327 70.5929 7.13048C71.0839 6.18542 71.7589 5.47969 72.6181 5.0133C73.4772 4.5469 74.453 4.31371 75.5453 4.31371C76.3922 4.31371 77.1593 4.45485 77.8466 4.73714C78.5339 5.00716 79.1169 5.41219 79.5956 5.95222C80.0865 6.47999 80.467 7.14276 80.737 7.94054C81.007 8.72604 81.1421 9.62815 81.1421 10.6469C81.1421 11.6656 81.007 12.5677 80.737 13.3532C80.4793 14.1264 80.1049 14.783 79.614 15.3231C79.1231 15.8508 78.5278 16.2559 77.8282 16.5382C77.1409 16.8082 76.3554 16.9432 75.4717 16.9432ZM75.5269 15.0653C76.2265 15.0653 76.8095 14.8996 77.2759 14.5683C77.7546 14.2246 78.1166 13.7337 78.3621 13.0954C78.6198 12.4572 78.7487 11.6778 78.7487 10.7573C78.7487 9.81225 78.6198 9.0022 78.3621 8.32715C78.1044 7.65211 77.73 7.14276 77.2391 6.7991C76.7604 6.44317 76.1713 6.2652 75.4717 6.2652C74.8089 6.2652 74.2321 6.43703 73.7411 6.78069C73.2624 7.11207 72.8942 7.60915 72.6365 8.27192C72.3787 8.92242 72.2499 9.7202 72.2499 10.6653C72.2499 11.3771 72.3235 12.0092 72.4708 12.5615C72.6181 13.1016 72.8267 13.5557 73.0967 13.9239C73.379 14.2921 73.7227 14.5744 74.1277 14.7708C74.545 14.9671 75.0114 15.0653 75.5269 15.0653Z" fill="#1D1D39"/>
<path d="M83.4203 16.7038V10.3339H81.8186V8.5849L84.3409 8.71377V8.38239C83.9604 8.27192 83.6413 8.11237 83.3835 7.90372C83.1258 7.68279 82.9355 7.42505 82.8128 7.13048C82.7023 6.83592 82.6471 6.51681 82.6471 6.17315C82.6471 5.64539 82.776 5.19126 83.0337 4.81078C83.2915 4.4303 83.6535 4.13574 84.1199 3.92709C84.5863 3.70617 85.1386 3.5957 85.7769 3.5957C86.3046 3.5957 86.7833 3.66321 87.2129 3.79822C87.6547 3.93322 88.0106 4.09892 88.2807 4.29529L88.0966 6.43089C87.8265 6.20997 87.5136 6.03814 87.1576 5.9154C86.8017 5.78039 86.458 5.71289 86.1267 5.71289C85.7462 5.71289 85.4332 5.82335 85.1877 6.04427C84.9423 6.25292 84.8195 6.59658 84.8195 7.07525C84.8195 7.38209 84.8747 7.6337 84.9852 7.83008C85.0957 8.01418 85.2368 8.16146 85.4086 8.27192C85.5928 8.37011 85.7707 8.44375 85.9425 8.49285H88.1886V10.3339H85.6848V16.7038H83.4203Z" fill="#1D1D39"/>
<path d="M97.4029 16.9435C96.6051 16.9435 95.8932 16.8637 95.2673 16.7041C94.6413 16.5569 94.1074 16.3237 93.6656 16.0045C93.236 15.6732 92.9046 15.2743 92.6714 14.8079C92.4382 14.3292 92.3155 13.7708 92.3032 13.1325L94.3652 12.525C94.3529 13.1141 94.4756 13.6051 94.7334 13.9978C94.9911 14.3783 95.3593 14.6606 95.838 14.8447C96.3289 15.0288 96.8874 15.1209 97.5133 15.1209C98.1147 15.1209 98.618 15.0472 99.023 14.8999C99.4403 14.7526 99.7533 14.5563 99.9619 14.3108C100.171 14.0531 100.275 13.7646 100.275 13.4455C100.275 13.0896 100.146 12.8073 99.8883 12.5986C99.6305 12.3777 99.2807 12.1997 98.8389 12.0647C98.4093 11.9175 97.9184 11.7824 97.3661 11.6597C96.7647 11.5247 96.1755 11.3774 95.5987 11.2179C95.0341 11.0583 94.5186 10.8435 94.0522 10.5735C93.5858 10.3035 93.2115 9.95982 92.9292 9.54252C92.6592 9.11295 92.5241 8.57291 92.5241 7.92242C92.5241 7.186 92.7082 6.55392 93.0765 6.02615C93.4447 5.48612 93.9786 5.06882 94.6782 4.77425C95.39 4.46741 96.2369 4.31399 97.2188 4.31399C98.1884 4.31399 99.0353 4.46128 99.7594 4.75584C100.484 5.03813 101.048 5.45543 101.453 6.00774C101.858 6.56005 102.073 7.21055 102.098 7.95924L99.9803 8.54837C99.9803 8.14334 99.9128 7.79354 99.7778 7.49898C99.6551 7.19214 99.471 6.94053 99.2255 6.74416C98.98 6.53551 98.6855 6.38209 98.3418 6.2839C98.0104 6.18571 97.6299 6.13662 97.2004 6.13662C96.6972 6.13662 96.2553 6.20412 95.8748 6.33913C95.5066 6.47414 95.2243 6.66438 95.0279 6.90985C94.8316 7.14305 94.7334 7.4192 94.7334 7.73831C94.7334 8.13107 94.8807 8.44404 95.1752 8.67724C95.4698 8.91044 95.8564 9.10068 96.3351 9.24796C96.826 9.38297 97.3599 9.51798 97.9368 9.65299C98.4645 9.76345 98.9923 9.89846 99.5201 10.058C100.06 10.2176 100.557 10.4262 101.011 10.684C101.465 10.9417 101.827 11.2915 102.098 11.7334C102.38 12.1629 102.521 12.7091 102.521 13.3719C102.521 14.0837 102.331 14.7097 101.95 15.2497C101.57 15.7898 100.999 16.2071 100.238 16.5016C99.4771 16.7962 98.532 16.9435 97.4029 16.9435Z" fill="url(#paint0_linear_314_3044)"/>
<path d="M103.929 16.7041V3.63281H106.267V6.63369C106.267 6.89144 106.254 7.15532 106.23 7.42534C106.218 7.69536 106.193 7.97151 106.156 8.2538C106.119 8.53609 106.076 8.81839 106.027 9.10068C105.991 9.38297 105.948 9.66526 105.899 9.94755H106.285C106.457 9.28478 106.678 8.72633 106.948 8.27221C107.218 7.80582 107.562 7.44988 107.979 7.20441C108.408 6.95894 108.93 6.83621 109.544 6.83621C110.661 6.83621 111.495 7.22896 112.048 8.01447C112.6 8.7877 112.876 9.96596 112.876 11.5492V16.7041H110.538V11.8806C110.538 10.8251 110.378 10.0457 110.059 9.54252C109.752 9.03931 109.286 8.7877 108.66 8.7877C108.145 8.7877 107.715 8.94726 107.371 9.26637C107.028 9.57321 106.764 9.98437 106.58 10.4999C106.396 11.0153 106.285 11.5983 106.248 12.2488V16.7041H103.929Z" fill="url(#paint1_linear_314_3044)"/>
<path d="M116.818 16.9435C116.291 16.9435 115.818 16.8453 115.401 16.6489C114.984 16.4403 114.652 16.1334 114.407 15.7284C114.173 15.3234 114.057 14.8201 114.057 14.2187C114.057 13.7155 114.149 13.286 114.333 12.93C114.529 12.5741 114.818 12.2857 115.198 12.0647C115.579 11.8315 116.051 11.6413 116.616 11.494C117.18 11.3345 117.843 11.1995 118.604 11.089C119.022 11.0276 119.359 10.9663 119.617 10.9049C119.887 10.8435 120.083 10.7515 120.206 10.6287C120.329 10.4937 120.39 10.2973 120.39 10.0396C120.39 9.65912 120.255 9.33387 119.985 9.06386C119.727 8.78156 119.304 8.64042 118.715 8.64042C118.359 8.64042 118.015 8.70179 117.684 8.82452C117.365 8.94726 117.088 9.14363 116.855 9.41365C116.622 9.6714 116.462 10.0151 116.377 10.4446L114.296 9.80027C114.431 9.30933 114.628 8.88589 114.885 8.52996C115.143 8.16175 115.462 7.84877 115.843 7.59103C116.223 7.33329 116.659 7.14305 117.15 7.02031C117.641 6.89758 118.181 6.83621 118.77 6.83621C119.666 6.83621 120.402 6.98349 120.979 7.27806C121.556 7.56035 121.986 8.00833 122.268 8.62201C122.55 9.22341 122.691 10.0028 122.691 10.9601V12.7643C122.691 13.1816 122.697 13.6173 122.71 14.0715C122.734 14.5133 122.759 14.9613 122.783 15.4154C122.82 15.8573 122.863 16.2868 122.912 16.7041H120.832C120.783 16.3605 120.74 15.9923 120.703 15.5995C120.666 15.2068 120.635 14.8079 120.611 14.4028H120.316C120.145 14.8692 119.899 15.2988 119.58 15.6916C119.261 16.0721 118.868 16.3789 118.402 16.6121C117.948 16.833 117.42 16.9435 116.818 16.9435ZM117.739 15.2313C117.984 15.2313 118.23 15.1884 118.475 15.1024C118.733 15.0165 118.985 14.8877 119.23 14.7158C119.476 14.544 119.703 14.3353 119.911 14.0899C120.12 13.8321 120.298 13.5314 120.445 13.1878L120.408 11.5492L120.85 11.6229C120.642 11.7947 120.384 11.9297 120.077 12.0279C119.77 12.1261 119.445 12.1997 119.101 12.2488C118.77 12.2979 118.432 12.3593 118.089 12.4329C117.757 12.4943 117.457 12.5802 117.187 12.6907C116.917 12.7889 116.702 12.9362 116.542 13.1325C116.383 13.3166 116.303 13.5744 116.303 13.9058C116.303 14.3231 116.438 14.6483 116.708 14.8815C116.978 15.1147 117.322 15.2313 117.739 15.2313Z" fill="url(#paint2_linear_314_3044)"/>
<path d="M124.462 16.7041V7.07554H126.413L126.377 10.3894H126.708C126.818 9.60389 126.99 8.95339 127.223 8.43791C127.457 7.91014 127.782 7.51739 128.199 7.25965C128.616 6.98963 129.132 6.85462 129.746 6.85462C129.868 6.85462 129.997 6.86075 130.132 6.87303C130.28 6.8853 130.439 6.91599 130.611 6.96508L130.519 9.41365C130.322 9.34001 130.12 9.29092 129.911 9.26637C129.715 9.22955 129.531 9.21114 129.359 9.21114C128.88 9.21114 128.463 9.33387 128.107 9.57934C127.763 9.82482 127.481 10.1746 127.26 10.6287C127.052 11.0706 126.892 11.5983 126.782 12.212V16.7041H124.462Z" fill="url(#paint3_linear_314_3044)"/>
<path d="M135.747 16.9435C134.974 16.9435 134.281 16.833 133.667 16.6121C133.065 16.3912 132.556 16.0721 132.139 15.6547C131.722 15.2252 131.402 14.7097 131.181 14.1083C130.961 13.5069 130.85 12.8257 130.85 12.0647C130.85 11.3038 130.954 10.6042 131.163 9.96596C131.384 9.32774 131.697 8.77543 132.102 8.30903C132.507 7.84264 132.998 7.48057 133.575 7.22282C134.164 6.96508 134.833 6.83621 135.582 6.83621C136.281 6.83621 136.907 6.95281 137.459 7.186C138.012 7.4192 138.478 7.769 138.859 8.23539C139.239 8.68951 139.521 9.26023 139.705 9.94755C139.89 10.6226 139.951 11.4081 139.89 12.3041L132.36 12.3593V11.0153L138.546 10.9601L137.736 11.7149C137.809 11.0153 137.754 10.4446 137.57 10.0028C137.386 9.54866 137.122 9.21728 136.778 9.00863C136.435 8.7877 136.042 8.67724 135.6 8.67724C135.097 8.67724 134.655 8.81225 134.274 9.08227C133.894 9.34001 133.599 9.72049 133.391 10.2237C133.194 10.7146 133.096 11.3161 133.096 12.0279C133.096 13.0957 133.329 13.8935 133.796 14.4213C134.274 14.949 134.925 15.2129 135.747 15.2129C136.115 15.2129 136.422 15.1699 136.668 15.084C136.926 14.9858 137.14 14.8631 137.312 14.7158C137.484 14.5563 137.619 14.3783 137.717 14.1819C137.828 13.9855 137.914 13.7769 137.975 13.556L140 14.0162C139.902 14.4704 139.742 14.8754 139.521 15.2313C139.3 15.5872 139.012 15.8941 138.656 16.1518C138.312 16.4096 137.901 16.6059 137.423 16.741C136.944 16.876 136.385 16.9435 135.747 16.9435Z" fill="url(#paint4_linear_314_3044)"/>
<path d="M25.7743 1.02742C25.7743 0.422088 25.1622 0.00762779 24.597 0.224225C16.6171 3.28198 11.7006 4.36801 3.64555 4.76284C3.18573 4.78538 2.82275 5.16355 2.82275 5.62393V16.4392C2.82275 16.9005 3.1871 17.2791 3.64789 17.3005C11.6101 17.6717 16.5093 18.7739 24.5381 22.5042C25.1114 22.7706 25.7743 22.3561 25.7743 21.7239V1.02742Z" fill="url(#paint5_linear_314_3044)" fill-opacity="0.13"/>
<path d="M0 1.22418C0 0.386552 0.821856 -0.204368 1.61787 0.056385C9.68575 2.69921 14.6166 3.92319 21.9474 4.60852C22.5829 4.66794 23.0743 5.19901 23.0743 5.83728V15.9448C23.0743 16.5488 22.6328 17.0626 22.0369 17.1615C14.1874 18.4645 9.31168 20.0474 1.66734 22.9428C0.862673 23.2475 0 22.6544 0 21.794V1.22418Z" fill="#D9D9D9"/>
<path d="M0 1.22418C0 0.386552 0.821856 -0.204368 1.61787 0.056385C9.68575 2.69921 14.6166 3.92319 21.9474 4.60852C22.5829 4.66794 23.0743 5.19901 23.0743 5.83728V15.9448C23.0743 16.5488 22.6328 17.0626 22.0369 17.1615C14.1874 18.4645 9.31168 20.0474 1.66734 22.9428C0.862673 23.2475 0 22.6544 0 21.794V1.22418Z" fill="url(#paint6_linear_314_3044)"/>
<defs>
<linearGradient id="paint0_linear_314_3044" x1="91.4379" y1="10.5674" x2="140.778" y2="10.5674" gradientUnits="userSpaceOnUse">
<stop stop-color="#895EF6"/>
<stop offset="0.54" stop-color="#F03063"/>
<stop offset="1" stop-color="#FF7640"/>
</linearGradient>
<linearGradient id="paint1_linear_314_3044" x1="91.4379" y1="10.5674" x2="140.778" y2="10.5674" gradientUnits="userSpaceOnUse">
<stop stop-color="#895EF6"/>
<stop offset="0.54" stop-color="#F03063"/>
<stop offset="1" stop-color="#FF7640"/>
</linearGradient>
<linearGradient id="paint2_linear_314_3044" x1="91.4379" y1="10.5674" x2="140.778" y2="10.5674" gradientUnits="userSpaceOnUse">
<stop stop-color="#895EF6"/>
<stop offset="0.54" stop-color="#F03063"/>
<stop offset="1" stop-color="#FF7640"/>
</linearGradient>
<linearGradient id="paint3_linear_314_3044" x1="91.4379" y1="10.5674" x2="140.778" y2="10.5674" gradientUnits="userSpaceOnUse">
<stop stop-color="#895EF6"/>
<stop offset="0.54" stop-color="#F03063"/>
<stop offset="1" stop-color="#FF7640"/>
</linearGradient>
<linearGradient id="paint4_linear_314_3044" x1="91.4379" y1="10.5674" x2="140.778" y2="10.5674" gradientUnits="userSpaceOnUse">
<stop stop-color="#895EF6"/>
<stop offset="0.54" stop-color="#F03063"/>
<stop offset="1" stop-color="#FF7640"/>
</linearGradient>
<linearGradient id="paint5_linear_314_3044" x1="22.215" y1="11.4275" x2="8.47595" y2="11.5528" gradientUnits="userSpaceOnUse">
<stop stop-color="#895EF6"/>
<stop offset="0.495" stop-color="#F03063"/>
<stop offset="0.99" stop-color="#FF7640"/>
</linearGradient>
<linearGradient id="paint6_linear_314_3044" x1="25.3267" y1="11.5497" x2="0.355785" y2="8.56907" gradientUnits="userSpaceOnUse">
<stop stop-color="#895EF6"/>
<stop offset="0.54" stop-color="#F03063"/>
<stop offset="1" stop-color="#FF7640"/>
</linearGradient>
</defs>
</svg>
